#N canvas 487 275 1194 765 10;
#X declare -lib /Users/shree/Library/Pd/fltagui;
#X text 813 233 Open abstraction for manual and more info;
#X text 794 262 Abra a abstração para manual e maiores informações
;
#X text 367 59 rewind;
#X text 530 60 record;
#X text 653 60 pause/continue;
#X text 371 39 |------------------------- BANGS: -----------------------|
;
#X text 201 19 Audio IN;
#X text 827 169 Grava e faz Phase Vocoder na hora.;
#X text 809 145 Records and does Phase Vocoding on the Fly.;
#X text 816 126 LPVoc:;
#X text 171 344 MONO;
#X text 169 718 <----------------------- STEREO --------------------------->
;
#X obj 205 79 LPVoc 3 2;
#X obj 205 49 adc~ 1;
#X obj 45 399 adc~ 2;
#X obj 605 399 adc~ 3;
#X obj 45 724 dac~ 1;
#X obj 605 722 dac~ 2;
#X obj 189 378 dac~ 1 2;
#X obj 45 430 LPVoc 7 1;
#X obj 605 431 LPVoc 7 1;
#X obj 853 50 declare -lib /Users/shree/Library/Pd/fltagui;
#X connect 12 0 18 0;
#X connect 12 0 18 1;
#X connect 13 0 12 0;
#X connect 14 0 19 0;
#X connect 15 0 20 0;
#X connect 19 0 16 0;
#X connect 20 0 17 0;
