#N canvas 224 128 1013 489 10;
#X declare -stdpath blokas;
#N canvas -8 -8 1366 685 (subpatch) 1;
#X obj 43 179 cnv 15 260 215 empty empty empty 20 12 0 14 -1 -66577
0;
#X obj 53 236 cnv 15 129 150 empty empty Phase-Vocoder 6 15 2 18 -58398
-253156 0;
#X obj 69 208 cnv 15 100 27 empty empty empty 20 12 0 14 -261234 -66577
0;
#N canvas 276 259 532 498 TabWrite 0;
#X obj 89 282 tabwrite~ \$0-sample;
#X obj 224 103 tgl 15 0 empty empty empty 17 7 0 10 -262144 -1 -1 1
1;
#X obj 224 124 sel 0 1;
#X obj 243 147 bng 15 250 50 0 empty empty empty 17 7 0 10 -262144
-1 -1;
#X obj 224 147 bng 15 250 50 0 empty empty empty 17 7 0 10 -262144
-1 -1;
#X msg 100 247 stop;
#X msg 258 212 start \$1;
#X obj -4 205 r \$0-recbangpv;
#X obj 223 -1 inlet;
#X floatatom 89 388 5 0 0 0 - - -;
#X obj 89 364 t b a;
#X obj 75 465 s \$0-speed;
#X obj 75 442 f;
#X obj 257 167 f;
#X obj 279 135 r \$0-rec-point;
#X floatatom 283 166 5 0 0 0 - - -;
#X obj 257 191 * 44100;
#X obj 382 132 s \$0-metro-on-off;
#X obj 89 409 abs;
#X obj 226 342 s \$0-rcv-P-C;
#X obj 238 80 r \$0-snd-P-C;
#X msg 224 44 set 1;
#X obj 277 13 r \$0-rewind;
#X obj 270 284 r \$0-rewind;
#X obj -4 233 t b b;
#X obj 89 340 r \$0-speed-preset;
#X msg 224 248 color 16 12 12 \, label Continue \, label_font 3 10
;
#X msg 246 314 color 15 12 12 \, label Pause \, label_font 3 10;
#X obj 340 70 s \$0-sample;
#X msg 296 41 const 0;
#X obj 89 2 inlet~;
#X obj 89 164 hip~ 5;
#X obj 92 306 cnv 15 100 27 empty empty empty 20 12 0 14 -261234 -66577
0;
#X obj 95 311 table \$0-sample;
#X connect 1 0 2 0;
#X connect 1 0 17 0;
#X connect 2 0 4 0;
#X connect 2 1 3 0;
#X connect 3 0 27 0;
#X connect 3 0 13 0;
#X connect 4 0 5 0;
#X connect 4 0 26 0;
#X connect 5 0 0 0;
#X connect 6 0 0 0;
#X connect 7 0 24 0;
#X connect 8 0 21 0;
#X connect 9 0 18 0;
#X connect 10 0 9 0;
#X connect 10 1 9 0;
#X connect 12 0 11 0;
#X connect 13 0 16 0;
#X connect 14 0 13 1;
#X connect 14 0 15 0;
#X connect 16 0 6 0;
#X connect 18 0 12 1;
#X connect 20 0 1 0;
#X connect 21 0 1 0;
#X connect 22 0 21 0;
#X connect 22 0 29 0;
#X connect 23 0 27 0;
#X connect 24 0 12 0;
#X connect 24 1 0 0;
#X connect 25 0 10 0;
#X connect 26 0 19 0;
#X connect 27 0 19 0;
#X connect 29 0 28 0;
#X connect 30 0 31 0;
#X connect 31 0 0 0;
#X restore 83 214 pd TabWrite;
#N canvas 155 234 381 221 loadbang 0;
#X obj 48 27 loadbang;
#X obj 101 175 s \$0-rcv-P-C;
#X msg 101 152 color 15 12 12 \, label Pause \, label_font 3 10;
#X obj 48 136 outlet;
#X msg 207 79 \; pd dsp 1 \;;
#X obj 17 86 delay 100;
#X obj 18 177 s \$0-rewind;
#X obj 48 51 trigger bang bang bang bang;
#X obj 154 80 f \$1;
#X obj 154 127 s \$0-get-preset;
#X obj 154 103 - 1;
#X connect 0 0 7 0;
#X connect 2 0 1 0;
#X connect 5 0 6 0;
#X connect 7 0 3 0;
#X connect 7 0 5 0;
#X connect 7 1 2 0;
#X connect 7 2 8 0;
#X connect 7 3 4 0;
#X connect 8 0 10 0;
#X connect 10 0 9 0;
#X restore 146 186 pd loadbang;
#N canvas 490 407 440 365 Location 0;
#X obj 92 251 +;
#X floatatom 107 164 7 0 0 0 - - -;
#X obj 80 186 / 2;
#X obj 65 207 -;
#X text -52 208 back up 1/2 window;
#N canvas 7 595 181 195 rewind 0;
#X obj 14 55 f;
#X obj 29 33 inlet;
#X obj 14 11 r \$0-rewind;
#X obj 14 82 expr ($f1/44.1) * -0.5;
#X obj 14 138 s \$0-location;
#X floatatom 14 109 5 0 0 0 - - -;
#X connect 0 0 3 0;
#X connect 1 0 0 1;
#X connect 2 0 0 0;
#X connect 3 0 5 0;
#X connect 5 0 4 0;
#X restore 142 187 pd rewind;
#X obj 114 193 / 4;
#X obj 65 141 * 44.1;
#X text 153 165 new Window;
#X text -51 140 Location (samples);
#X obj 114 216 s \$0-overlap;
#N canvas 18 137 195 252 transposition 0;
#X obj 22 61 * 0.01;
#X obj 22 82 + 69;
#X obj 23 103 mtof;
#X obj 23 125 / 440;
#X obj 23 146 t b f;
#X obj 15 15 r \$0-window-size;
#X obj 22 36 r \$0-transpo;
#X msg 82 59 set \$1;
#X obj 82 81 s \$0-transpo-set;
#X obj 15 192 *;
#X obj 15 215 outlet;
#X obj 15 170 f;
#X connect 0 0 1 0;
#X connect 1 0 2 0;
#X connect 2 0 3 0;
#X connect 3 0 4 0;
#X connect 4 0 11 0;
#X connect 4 1 9 1;
#X connect 5 0 11 0;
#X connect 6 0 0 0;
#X connect 6 0 7 0;
#X connect 7 0 8 0;
#X connect 9 0 10 0;
#X connect 11 0 9 0;
#X restore 107 141 pd transposition;
#X obj 65 230 t f f;
#X obj -1 298 outlet;
#X obj 266 299 outlet;
#X obj 18 41 nbx 5 18 -1e+037 1e+037 0 0 \$0-speed \$0-speed-set Speed
73 9 0 13 -183930 -1 -1 0 256;
#N canvas 318 50 309 174 Line-Location 0;
#X msg 17 120 \$1 \, \$2 \$3;
#X obj 17 18 inlet;
#X obj 45 40 inlet;
#X obj 17 148 outlet;
#X obj 74 64 r \$0-hopinms;
#X obj 17 91 pack 0 0 f;
#X text 56 15 Location samples - (1/2 window);
#X text 85 38 Location samples + (1/2 window);
#X floatatom 90 90 5 0 0 0 - - -;
#X text 158 63 Tempo do [line~];
#X text 64 150 Pro [line~];
#X connect 0 0 3 0;
#X connect 1 0 5 0;
#X connect 2 0 5 1;
#X connect 4 0 5 2;
#X connect 4 0 8 0;
#X connect 5 0 0 0;
#X restore -1 272 pd Line-Location;
#N canvas 622 557 628 296 generate-phase-vocoder-location 0;
#X msg 172 71 0;
#X msg 285 123 set \$1;
#X obj 175 173 +;
#X obj 190 152 *;
#X obj 205 129 r \$0-hopinms;
#N canvas 57 50 259 143 bang~ 0;
#X obj -147 -13 bang~;
#X obj -79 -38 cnv 15 130 100 empty empty empty 20 12 0 14 -233017
-66577 0;
#X obj -60 19 block~;
#X msg -60 -3 set \$1 4;
#X text -69 40 Window & Overlaps;
#X obj -60 -24 r \$0-window-size;
#X obj -147 17 outlet;
#X connect 0 0 6 0;
#X connect 3 0 2 0;
#X connect 5 0 3 0;
#X restore 87 100 pd bang~;
#X obj 132 172 float;
#X obj 244 95 r \$0-speed;
#X obj 285 145 s \$0-speed-set;
#X obj 172 94 s \$0-speed;
#X obj 159 47 r \$0-location;
#X floatatom 133 197 8 0 0 0 - - -;
#X obj 133 226 outlet;
#X obj 193 227 outlet;
#X obj 52 78 r \$0-loop-Loc;
#X obj 14 52 r \$0-rewind;
#X msg 14 107 0;
#X obj 14 82 del 5;
#X text 311 88 Speed define o passo/velocidade do contador \, que é
controlado por um [bang~].;
#X text 112 248 Location em Milisegundos;
#X floatatom 207 175 8 0 0 0 - - -;
#X obj 168 129 / 100;
#X obj 150 25 r \$0-Loop-PVoc-Slider;
#X connect 0 0 9 0;
#X connect 1 0 8 0;
#X connect 2 0 6 1;
#X connect 3 0 2 1;
#X connect 3 0 20 0;
#X connect 4 0 3 1;
#X connect 5 0 6 0;
#X connect 6 0 2 0;
#X connect 6 0 11 0;
#X connect 7 0 1 0;
#X connect 7 0 21 0;
#X connect 10 0 6 1;
#X connect 10 0 0 0;
#X connect 11 0 12 0;
#X connect 11 0 13 0;
#X connect 14 0 6 0;
#X connect 15 0 17 0;
#X connect 16 0 6 0;
#X connect 17 0 16 0;
#X connect 21 0 3 0;
#X connect 22 0 6 1;
#X restore 65 118 pd generate-phase-vocoder-location;
#X text -56 319 Location in samples for [line~];
#N canvas 92 62 197 256 speed-nbx-control 0;
#X obj 87 68 r \$0-recbangpv;
#X msg 87 96 1;
#X obj 40 165 spigot;
#X obj 54 46 r \$0-rewind;
#X msg 54 67 0;
#X obj 87 117 t b f;
#X obj 40 143 f;
#X obj 40 20 r \$0-to-speed;
#X obj 40 188 s \$0-speed-set;
#X connect 0 0 1 0;
#X connect 1 0 5 0;
#X connect 2 0 8 0;
#X connect 3 0 4 0;
#X connect 4 0 2 1;
#X connect 5 0 6 0;
#X connect 5 1 2 1;
#X connect 6 0 2 0;
#X connect 7 0 6 0;
#X restore 7 9 pd speed-nbx-control;
#X text -24 68 Velocidade de leitura \, ligada ao "Motion";
#X text 236 321 Location em ms;
#X text -84 272 - 1/2 window;
#X text 104 271 + 1/2 window;
#X connect 0 0 16 1;
#X connect 1 0 0 1;
#X connect 1 0 2 0;
#X connect 1 0 5 0;
#X connect 1 0 6 0;
#X connect 2 0 3 1;
#X connect 3 0 12 0;
#X connect 6 0 10 0;
#X connect 7 0 3 0;
#X connect 11 0 1 0;
#X connect 12 0 16 0;
#X connect 12 1 0 0;
#X connect 16 0 13 0;
#X connect 17 0 7 0;
#X connect 17 1 14 0;
#X restore 63 267 pd Location;
#X obj 183 236 cnv 15 105 120 empty empty Controls 11 11 0 13 -233017
-66577 0;
#X obj 183 356 cnv 15 105 30 empty empty empty 20 12 0 14 -170602 -66577
0;
#N canvas 435 391 238 148 preseting 0;
#N canvas 155 59 710 631 presets 0;
#X obj 248 28 inlet;
#X obj 17 29 inlet;
#N canvas 627 69 812 677 set 0;
#X obj 79 15 inlet;
#X obj 29 372 outlet;
#X obj 61 338 outlet;
#X obj 95 291 outlet;
#X obj 79 38 route 0 1 2 3 4 5 6 7;
#X obj 165 503 outlet;
#X obj 141 441 outlet;
#X obj 122 399 outlet;
#X obj 190 572 outlet;
#X obj 235 629 outlet;
#X msg 79 77 set window-size \$1 \, addcomma \, add2 transposition
\$2 \, addcomma \, add2 Pvol \$3 \, addcomma \, add2 minutes \$4 \,
addcomma \, add2 speed \$5 \, addcomma \, add2 lock \$6 \, addcomma
\, add2 Name \$7 \, addcomma \, add2 Loop \$8;
#X msg 97 142 set window-size \$1 \, addcomma \, add2 transposition
\$2 \, addcomma \, add2 Pvol \$3 \, addcomma \, add2 minutes \$4 \,
addcomma \, add2 speed \$5 \, addcomma \, add2 lock \$6 \, addcomma
\, add2 Name \$7 \, addcomma \, add2 Loop \$8;
#X msg 113 210 set window-size \$1 \, addcomma \, add2 transposition
\$2 \, addcomma \, add2 Pvol \$3 \, addcomma \, add2 minutes \$4 \,
addcomma \, add2 speed \$5 \, addcomma \, add2 lock \$6 \, addcomma
\, add2 Name \$7 \, addcomma \, add2 Loop \$8;
#X msg 162 289 set window-size \$1 \, addcomma \, add2 transposition
\$2 \, addcomma \, add2 Pvol \$3 \, addcomma \, add2 minutes \$4 \,
addcomma \, add2 speed \$5 \, addcomma \, add2 lock \$6 \, addcomma
\, add2 Name \$7 \, addcomma \, add2 Loop \$8;
#X msg 179 354 set window-size \$1 \, addcomma \, add2 transposition
\$2 \, addcomma \, add2 Pvol \$3 \, addcomma \, add2 minutes \$4 \,
addcomma \, add2 speed \$5 \, addcomma \, add2 lock \$6 \, addcomma
\, add2 Name \$7 \, addcomma \, add2 Loop \$8;
#X msg 198 422 set window-size \$1 \, addcomma \, add2 transposition
\$2 \, addcomma \, add2 Pvol \$3 \, addcomma \, add2 minutes \$4 \,
addcomma \, add2 speed \$5 \, addcomma \, add2 lock \$6 \, addcomma
\, add2 Name \$7 \, addcomma \, add2 Loop \$8;
#X msg 212 488 set window-size \$1 \, addcomma \, add2 transposition
\$2 \, addcomma \, add2 Pvol \$3 \, addcomma \, add2 minutes \$4 \,
addcomma \, add2 speed \$5 \, addcomma \, add2 lock \$6 \, addcomma
\, add2 Name \$7 \, addcomma \, add2 Loop \$8;
#X msg 237 560 set window-size \$1 \, addcomma \, add2 transposition
\$2 \, addcomma \, add2 Pvol \$3 \, addcomma \, add2 minutes \$4 \,
addcomma \, add2 speed \$5 \, addcomma \, add2 lock \$6 \, addcomma
\, add2 Name \$7 \, addcomma \, add2 Loop \$8;
#X connect 0 0 4 0;
#X connect 4 0 10 0;
#X connect 4 1 11 0;
#X connect 4 2 12 0;
#X connect 4 3 13 0;
#X connect 4 4 14 0;
#X connect 4 5 15 0;
#X connect 4 6 16 0;
#X connect 4 7 17 0;
#X connect 10 0 1 0;
#X connect 11 0 2 0;
#X connect 12 0 3 0;
#X connect 13 0 7 0;
#X connect 14 0 6 0;
#X connect 15 0 5 0;
#X connect 16 0 8 0;
#X connect 17 0 9 0;
#X restore 248 74 pd set preset;
#X obj 309 601 outlet;
#X msg 103 366 window-size 2048 \, transposition 0 \, Pvol 0.992126
\, minutes 1 \, speed 100 \, lock 1 \, Name Normal \, Loop 2;
#X msg 174 317 window-size 2048 \, transposition 24 \, Pvol 0.992126
\, minutes 1 \, speed 500 \, lock 1 \, Name Rápido \, Loop 2;
#X msg 212 271 window-size 2048 \, transposition -51 \, Pvol 0.992126
\, minutes 1 \, speed 25 \, lock 1 \, Name Lento \, Loop 1;
#X msg 61 503 window-size 2048 \, transposition -2000 \, Pvol 0.992126
\, minutes 1 \, speed 95 \, lock 1 \, Name Grave \, Loop 2;
#X msg 93 461 window-size 2048 \, transposition 2000 \, Pvol 0.992126
\, minutes 1 \, speed 95 \, lock 1 \, Name Agudo \, Loop 2;
#X msg 131 415 window-size 2048 \, transposition 73 \, Pvol 0.992126
\, minutes 1 \, speed 110 \, lock 0 \, Name Diálogo \, Loop 2;
#X msg 285 224 window-size 2048 \, transposition 47 \, Pvol 1 \, minutes
1 \, speed 10 \, lock 0 \, Name Parando \, Loop 1;
#X msg 323 178 window-size 2048 \, transposition 0 \, Pvol 1 \, minutes
1 \, speed 50 \, lock 0 \, Name Half \, Loop 0;
#X obj 17 74 route 0 1 2 3 4 5 6 7;
#X connect 0 0 2 0;
#X connect 1 0 12 0;
#X connect 2 0 4 0;
#X connect 2 1 5 0;
#X connect 2 2 6 0;
#X connect 2 3 7 0;
#X connect 2 4 8 0;
#X connect 2 5 9 0;
#X connect 2 6 10 0;
#X connect 2 7 11 0;
#X connect 4 0 3 0;
#X connect 5 0 3 0;
#X connect 6 0 3 0;
#X connect 7 0 3 0;
#X connect 8 0 3 0;
#X connect 9 0 3 0;
#X connect 10 0 3 0;
#X connect 11 0 3 0;
#X connect 12 0 4 0;
#X connect 12 1 5 0;
#X connect 12 2 6 0;
#X connect 12 3 7 0;
#X connect 12 4 8 0;
#X connect 12 5 9 0;
#X connect 12 6 10 0;
#X connect 12 7 11 0;
#X restore 49 65 pd presets;
#N canvas 107 50 582 480 save 0;
#X obj -91 312 outlet;
#X obj -20 80 r \$0-window-size;
#X obj 3 101 r \$0-transpo;
#X obj -64 59 r \$0-save-preset;
#X floatatom 8 196 5 0 0 0 - - -;
#X floatatom -34 200 5 0 0 0 - - -;
#X obj 87 61 r \$0-pvgain;
#X floatatom 58 197 5 0 0 0 - - -;
#X floatatom 114 195 5 0 0 0 - - -;
#X obj 183 68 r \$0-to-speed;
#X obj 234 99 r \$0-lock;
#X obj 108 83 r \$0-temp;
#X floatatom 235 194 5 0 0 0 - - -;
#X obj 183 91 abs;
#X floatatom 192 194 5 0 0 0 - - -;
#X floatatom -86 197 5 0 0 0 - - -;
#X obj -91 286 list;
#X obj -115 34 r \$0-save-preset-bang;
#X obj 266 120 r \$0-pre-name;
#X obj -61 142 f;
#X obj -122 99 t b b;
#X obj -49 172 pack float float float float float float float symbol
float;
#X floatatom 344 194 5 0 0 0 - - -;
#X obj 302 149 r \$0-RadioValue;
#X msg -121 407 menusave;
#X obj -121 428 send pd-LPVoc.pd;
#X connect 1 0 5 0;
#X connect 1 0 21 1;
#X connect 2 0 4 0;
#X connect 2 0 21 2;
#X connect 3 0 15 0;
#X connect 3 0 19 1;
#X connect 6 0 7 0;
#X connect 6 0 21 3;
#X connect 9 0 13 0;
#X connect 10 0 12 0;
#X connect 10 0 21 6;
#X connect 11 0 8 0;
#X connect 11 0 21 4;
#X connect 13 0 14 0;
#X connect 13 0 21 5;
#X connect 16 0 0 0;
#X connect 17 0 20 0;
#X connect 18 0 21 7;
#X connect 19 0 21 0;
#X connect 20 0 16 0;
#X connect 20 0 24 0;
#X connect 20 1 19 0;
#X connect 21 0 16 1;
#X connect 23 0 21 8;
#X connect 23 0 22 0;
#X connect 24 0 25 0;
#X restore 108 40 pd save preset;
#X obj 49 17 r \$0-read-preset;
#N canvas 14 391 432 553 route 0;
#X obj 35 20 inlet;
#N canvas 23 260 357 177 hop 0;
#X floatatom 68 63 5 0 0 0 - - -;
#X obj 31 69 / 4;
#X text 55 117 computation period (msec) for overlap of 4;
#X text 121 62 msec in a window;
#X obj 31 94 s \$0-hopinms;
#X obj 30 17 inlet;
#X obj 30 39 / 44.1;
#X floatatom 124 92 5 0 0 0 - - -;
#X connect 1 0 4 0;
#X connect 1 0 7 0;
#X connect 5 0 6 0;
#X connect 6 0 1 0;
#X connect 6 0 0 0;
#X restore 21 336 pd hop in ms;
#X obj 35 303 s \$0-window-size;
#X obj 75 281 s \$0-transpo;
#X obj 116 252 s \$0-pvol;
#X obj 198 208 s \$0-speed-preset;
#X obj 239 185 s \$0-set-lock;
#X obj 280 160 s \$0-Preset-Name;
#X obj 280 137 symbol;
#X obj 35 47 route window-size transposition Pvol minutes speed lock
Name Loop;
#X obj 321 98 s \$0-AutoRadio;
#X obj 168 230 s \$0-min-nbx;
#X connect 0 0 9 0;
#X connect 8 0 7 0;
#X connect 9 0 2 0;
#X connect 9 0 1 0;
#X connect 9 1 3 0;
#X connect 9 2 4 0;
#X connect 9 3 11 0;
#X connect 9 4 5 0;
#X connect 9 5 6 0;
#X connect 9 6 8 0;
#X connect 9 7 10 0;
#X restore 49 92 pd route preset;
#X obj 54 41 pipe 200;
#N canvas 529 50 159 213 label 0;
#X obj 23 27 inlet;
#X obj 23 173 s \$0-Pre-Cnv;
#X obj 23 64 + 1;
#X obj 59 51 r \$0-pre-name;
#X msg 23 150 label \$1-\$2;
#X obj 23 127 pack f s;
#X obj 23 102 f;
#X obj 59 76 t b s;
#X connect 0 0 2 0;
#X connect 2 0 6 0;
#X connect 3 0 7 0;
#X connect 4 0 1 0;
#X connect 5 0 4 0;
#X connect 6 0 5 0;
#X connect 7 0 6 0;
#X connect 7 1 5 1;
#X restore 22 115 pd label;
#X connect 0 0 3 0;
#X connect 1 0 0 1;
#X connect 2 0 4 0;
#X connect 2 0 0 0;
#X connect 2 0 5 0;
#X connect 4 0 0 0;
#X restore 196 363 pd preseting;
#X obj 1 1 cnv 15 389 154 empty \$0-back-ctr-cnv empty 20 12 0 14 -253822
-33289 0;
#X obj 175 128 tgl 18 0 \$0-lock \$0-set-lock lock -2 -6 0 8 -203904
-1 -1 1 1;
#X obj 5 126 hradio 23 1 0 7 qwqhk14524444 \$0-wsize Window_Size 6
-10 0 11 -4034 -262144 -1 0;
#X obj 94 109 nbx 5 14 -1e+037 1e+037 0 0 gdgf354354 \$0-window-size
empty 0 -6 0 10 -4034 -1 -1 2048 256;
#X text 10 128 7;
#X text 34 128 8;
#X text 57 128 9;
#X text 77 128 10;
#X text 101 128 11;
#X text 124 128 12;
#X text 147 128 13;
#X obj 11 68 bng 30 250 50 0 \$0-rewind \$0-resetpv Rewind 0 -6 0 10
-4032 -1 -1;
#X obj 56 68 bng 30 250 50 0 \$0-recbangpv \$0-recpv Record 0 -6 0
10 -258699 -33289 -33289;
#X obj 13 26 nbx 4 20 0.1 10 0 0 \$0-temp-nbx \$0-min-nbx Min 60 11
1 14 -199398 -1 -1 0.1 256;
#X obj 356 21 vsl 23 128 0 1 0 0 \$0-pvgain \$0-pvol Vol 0 -10 0 13
-162983 -1 -1 12600 1;
#X obj 250 42 nbx 5 40 -1e+037 1e+037 0 0 \$0-to-speed \$0-speed-preset
Motion 0 -9 0 15 -3187 -1 -1 15400 256;
#X obj 250 103 nbx 5 40 -1e+037 1e+037 0 0 \$0-transpo \$0-transpo-set
Transp 0 -9 0 15 -157606 -1 -1 -2000 256;
#N canvas 134 50 426 154 window 0;
#X obj 18 54 expr pow(2 \, ($f1 + 7));
#X msg 181 66 set \$1;
#X obj 181 44 expr ((log($f1)/log(2)) - 7+ 0.001);
#X obj 18 76 s \$0-window-size;
#X obj 181 88 s \$0-wsize;
#X obj 18 31 inlet;
#X obj 181 23 inlet;
#X connect 0 0 3 0;
#X connect 1 0 4 0;
#X connect 2 0 1 0;
#X connect 5 0 0 0;
#X connect 6 0 2 0;
#X restore 43 157 pd window;
#X obj 101 68 bng 30 250 50 0 \$0-snd-P-C \$0-rcv-P-C Pause 0 -6 0
10 -241291 -33289 -33289;
#X obj 205 110 tgl 30 0 \$0-freeze-it \$0-set-freeze Freeze -1 -8 0
10 -83269 -222849 -1 0 1;
#X obj 1 0 cnv 15 60 16 empty empty control 5 7 0 12 -58255 -262144
0;
#N canvas 818 104 388 315 freeze 0;
#X obj 109 -132 sel 0;
#X msg 149 56 set \$1;
#X obj 149 82 s \$0-speed-preset;
#X obj 123 27 abs;
#X floatatom 194 -14 5 0 0 0 - - -;
#X obj 208 -77 bng 15 250 50 0 empty empty empty 17 7 0 10 -262144
-1 -1;
#X obj 234 15 s \$0-speed-preset;
#X obj 216 -136 r \$0-freeze-it;
#X obj 216 -109 sel 0 1;
#X msg 234 -86 0;
#X obj 21 -79 s \$0-set-freeze;
#X msg 21 -102 set 0;
#X obj 20 -57 r \$0-rewind;
#X obj 109 -154 r \$0-speed;
#X obj 79 -20 float;
#X obj 180 -44 float;
#X text 155 -183 Freeze;
#X connect 0 1 1 0;
#X connect 0 1 11 0;
#X connect 0 1 14 1;
#X connect 0 1 15 1;
#X connect 1 0 2 0;
#X connect 3 0 1 0;
#X connect 4 0 6 0;
#X connect 5 0 15 0;
#X connect 7 0 8 0;
#X connect 8 0 5 0;
#X connect 8 1 9 0;
#X connect 9 0 6 0;
#X connect 11 0 10 0;
#X connect 12 0 14 0;
#X connect 13 0 0 0;
#X connect 14 0 3 0;
#X connect 15 0 3 0;
#X connect 15 0 4 0;
#X restore 207 266 pd freeze;
#N canvas 610 100 469 703 knob-loc 0;
#X obj 41 152 r \$0-Loc-Knob;
#X msg 236 199 0;
#X msg 118 234 set 1;
#X obj 236 223 s \$0-speed-preset;
#X text 130 150 Location Knob;
#X obj 41 447 pack f f;
#X msg 41 473 \$2 \, \$1 500;
#X obj 118 257 s \$0-set-freeze;
#X obj 42 565 *;
#X floatatom 42 612 5 0 0 0 - - -;
#X obj 42 637 * 1000;
#X obj 128 618 /;
#X obj 128 640 * 100;
#X obj 42 589 moses;
#X obj 69 565 r \$0-time-lenght;
#X obj 42 662 s \$0-location;
#X obj 42 517 line;
#X obj 128 662 s \$0-VocTime;
#X obj 57 543 r \$0-moses-timing;
#X obj 86 370 change;
#X msg 86 338 1;
#X msg 124 337 0;
#X obj 124 292 r \$0-freeze-it;
#X obj 124 315 sel 0;
#X obj 86 393 sel 1;
#X obj 86 422 float;
#X obj 268 446 spigot;
#X msg 279 422 1;
#X msg 310 421 0;
#X obj 268 492 s \$0-LocControl;
#X msg 268 469 set \$1;
#X obj 41 175 trigger float bang bang bang bang;
#X obj 278 92 * 100;
#X obj 278 114 s \$0-VocTime;
#X text 364 114 % canvas;
#X obj 268 66 /;
#X obj 283 43 r \$0-time-lenght;
#X obj 268 19 inlet;
#X text 311 16 Location em Segundos;
#X connect 0 0 31 0;
#X connect 1 0 3 0;
#X connect 2 0 7 0;
#X connect 5 0 6 0;
#X connect 6 0 16 0;
#X connect 8 0 13 0;
#X connect 9 0 10 0;
#X connect 10 0 15 0;
#X connect 11 0 12 0;
#X connect 12 0 17 0;
#X connect 13 0 9 0;
#X connect 13 0 11 0;
#X connect 14 0 13 1;
#X connect 16 0 8 0;
#X connect 16 0 5 1;
#X connect 18 0 8 1;
#X connect 18 0 11 1;
#X connect 19 0 24 0;
#X connect 20 0 19 0;
#X connect 21 0 19 0;
#X connect 21 0 27 0;
#X connect 22 0 23 0;
#X connect 23 0 21 0;
#X connect 24 0 25 0;
#X connect 25 0 5 1;
#X connect 26 0 30 0;
#X connect 27 0 26 1;
#X connect 28 0 26 1;
#X connect 30 0 29 0;
#X connect 31 0 5 0;
#X connect 31 1 20 0;
#X connect 31 2 2 0;
#X connect 31 3 28 0;
#X connect 31 4 1 0;
#X connect 32 0 33 0;
#X connect 35 0 32 0;
#X connect 35 0 26 0;
#X connect 35 0 25 1;
#X connect 36 0 35 1;
#X connect 37 0 35 0;
#X restore 189 332 pd knob-loc;
#X obj 319 22 bng 17 250 50 0 \$0-rev-bang \$0-vchbgblooo Bounce -14
-6 0 10 -4032 -1 -1;
#X obj 204 21 vradio 18 1 1 3 \$0-RadioValue \$0-AutoRadio Loop 0 -8
0 10 -204800 -41667 -1 0.472441;
#N canvas 60 73 237 270 gain 0;
#X obj 83 26 inlet~;
#X obj 83 188 outlet~;
#X obj 83 161 *~;
#X obj 98 134 line~;
#X msg 98 106 \$1 10;
#X obj 98 83 pow 4;
#X obj 98 61 r \$0-pvgain;
#X connect 0 0 2 0;
#X connect 2 0 1 0;
#X connect 3 0 2 1;
#X connect 4 0 3 0;
#X connect 5 0 4 0;
#X connect 6 0 5 0;
#X restore 63 325 pd gain;
#X obj 83 -35 inlet~;
#X obj 63 354 outlet~;
#N canvas 131 532 458 307 (subpatch) 0;
#X obj 2 37 r \$0-VocTime;
#X msg 2 118 label \$1%;
#X obj 1 1 cnv 15 46 16 empty \$0-VocTime-CNV 0% 4 10 1 12 -99865 -262144
0;
#X obj 2 140 s \$0-VocTime-CNV;
#X obj 2 78 int;
#X obj 2 57 * 10;
#X obj 2 98 / 10;
#X obj 135 157 s screenLine1;
#X msg 132 134 1:Location \$1:%;
#X connect 0 0 5 0;
#X connect 1 0 3 0;
#X connect 4 0 6 0;
#X connect 5 0 4 0;
#X connect 6 0 1 0;
#X connect 6 0 8 0;
#X connect 8 0 7 0;
#X coords 0 1 100 -1 48 18 1 0 0;
#X restore 138 24 graph;
#N canvas 217 269 641 631 Time/sliders 0;
#X msg 194 71 \$1 1000;
#X obj 270 135 line;
#X obj 270 328 moses;
#X obj 332 360 s \$0-stop-time;
#X obj 270 362 nbx 5 14 -1e+037 1e+037 0 0 empty empty empty 0 -8 0
10 -204786 -1 -1 0 256;
#X obj 283 451 f;
#X obj 283 473 s \$0-rec-point;
#X obj 270 49 r \$0-rewind;
#X msg 270 74 0;
#X obj 309 158 r \$0-back-to-moses;
#X obj 302 73 r \$0-stoping-metro;
#X obj 283 429 r \$0-stoping-metro;
#X obj 251 30 r \$0-zeroline;
#N canvas 139 50 462 246 real-time 0;
#X obj 45 23 inlet;
#X obj 322 33 inlet;
#X obj 323 85 s \$0-rcv-time-slider;
#X obj 21 186 mod 60;
#X obj 109 189 div 60;
#X obj 21 209 s \$0-time-sec;
#X obj 109 209 s \$0-time-min;
#X msg 170 89 set \$1;
#X msg 121 153 10;
#X obj 200 23 r \$0-time-lenght;
#X obj 225 89 select;
#X obj 199 45 t f f;
#X obj 66 50 s \$0-rcv-time-slider;
#X connect 0 0 4 0;
#X connect 0 0 3 0;
#X connect 0 0 12 0;
#X connect 1 0 2 0;
#X connect 1 0 10 0;
#X connect 3 0 5 0;
#X connect 4 0 6 0;
#X connect 7 0 8 0;
#X connect 8 0 3 0;
#X connect 8 0 4 0;
#X connect 9 0 11 0;
#X connect 10 0 8 0;
#X connect 11 0 7 0;
#X connect 11 1 10 1;
#X restore 186 361 pd real-time;
#X obj 33 28 inlet;
#X obj 287 390 s \$0-moses-timing;
#X obj 34 404 nbx 6 14 -1e+037 1e+037 0 0 empty empty empty 0 -8 0
10 -261682 -1 -1 0 256;
#X obj 302 102 float;
#N canvas 209 64 308 517 metro 0;
#X obj 9 427 outlet;
#X obj 9 353 metro 1000;
#X obj 9 280 tgl 15 0 empty empty empty 17 7 0 10 -262144 -1 -1 0 1
;
#X obj 91 377 + 1;
#X msg 9 258 0;
#X obj 17 230 r \$0-stop-time;
#X msg 91 350 0;
#X obj 9 376 float 1;
#X obj -96 49 r \$0-metro-on-off;
#X msg -69 184 0;
#X obj -96 158 t b b;
#X obj 9 207 r \$0-rewind;
#X obj 58 427 s \$0-metro-counter;
#X obj 58 408 nbx 5 14 -1e+037 1e+037 0 0 empty empty empty 0 -8 0
10 -262144 -1 -1 0 256;
#X obj -39 185 r \$0-bang-the-metro-back;
#N canvas 308 176 452 363 restart-metro 0;
#X obj 119 79 expr abs($f1 - $f2) * 1000;
#X obj 74 216 line;
#X obj 74 184 pack f f;
#X obj 74 251 ==;
#X obj 74 138 f;
#X obj 74 273 sel 1;
#X obj 272 32 r \$0-metro-counter;
#X obj 272 56 nbx 5 14 -1e+037 1e+037 0 0 empty empty empty 0 -8 0
10 -262144 -1 -1 0 256;
#X obj 89 115 r \$0-metro-counter;
#X obj 74 295 s \$0-bang-the-metro-back;
#X obj 74 160 trigger float float bang;
#X obj 119 55 r \$0-moses-timing;
#X obj 188 194 r \$0-moses-timing;
#X obj 141 196 float;
#X obj 30 320 s \$0-back-to-moses;
#X obj 74 33 inlet;
#X connect 0 0 2 1;
#X connect 1 0 3 0;
#X connect 1 0 14 0;
#X connect 2 0 1 0;
#X connect 3 0 5 0;
#X connect 4 0 10 0;
#X connect 5 0 9 0;
#X connect 6 0 7 0;
#X connect 7 0 0 1;
#X connect 8 0 4 1;
#X connect 10 0 2 0;
#X connect 10 1 3 1;
#X connect 10 2 13 0;
#X connect 11 0 0 0;
#X connect 12 0 13 1;
#X connect 13 0 1 0;
#X connect 15 0 4 0;
#X restore -42 157 pd restart-metro;
#X obj -96 134 select 0 1;
#X obj -94 467 s \$0-stoping-metro;
#X obj 124 350 s \$0-zeroline;
#X obj 9 322 trigger bang bang;
#X obj 9 299 select 1;
#X obj 74 256 r \$0-recbangpv;
#X msg 74 278 1;
#X obj -84 78 r \$0-snd-P-C;
#X obj -84 114 tgl 15 0 empty empty empty 17 7 0 10 -262144 -1 -1 1
1;
#X msg 13 79 set 1;
#X obj 31 54 r \$0-rewind;
#X obj 13 30 loadbang;
#X connect 1 0 7 0;
#X connect 2 0 20 0;
#X connect 3 0 7 1;
#X connect 4 0 2 0;
#X connect 5 0 4 0;
#X connect 6 0 3 0;
#X connect 7 0 3 0;
#X connect 7 0 13 0;
#X connect 7 0 0 0;
#X connect 8 0 16 0;
#X connect 9 0 1 0;
#X connect 10 0 17 0;
#X connect 10 1 9 0;
#X connect 11 0 4 0;
#X connect 13 0 12 0;
#X connect 14 0 1 0;
#X connect 16 0 10 0;
#X connect 16 1 15 0;
#X connect 19 0 1 0;
#X connect 19 1 6 0;
#X connect 19 1 18 0;
#X connect 20 0 19 0;
#X connect 20 1 1 0;
#X connect 21 0 22 0;
#X connect 22 0 2 0;
#X connect 23 0 24 0;
#X connect 24 0 16 0;
#X connect 25 0 24 0;
#X connect 26 0 25 0;
#X connect 27 0 25 0;
#X restore 194 30 pd metro;
#X obj 194 50 nbx 4 14 -1e+037 1e+037 0 0 empty empty empty 0 -8 0
10 -195568 -1 -1 0 256;
#X obj 34 524 outlet;
#N canvas 405 50 226 265 LocSlider 0;
#X obj 6 2 inlet;
#X obj -19 219 outlet;
#X obj 6 48 nbx 5 14 -1e+037 1e+037 0 0 empty empty empty 0 -8 0 10
-262144 -1 -1 0 256;
#X obj 6 27 / 1000;
#X obj 87 109 mod 60;
#X obj 6 181 s \$0-rcv-ph-slider;
#X obj 42 134 div 60;
#X obj 42 156 s \$0-pv-min;
#X obj 87 131 s \$0-pv-sec;
#X text 75 48 Location em Segundos;
#X connect 0 0 3 0;
#X connect 2 0 4 0;
#X connect 2 0 5 0;
#X connect 2 0 6 0;
#X connect 2 0 1 0;
#X connect 3 0 2 0;
#X connect 4 0 8 0;
#X connect 6 0 7 0;
#X restore 34 360 pd LocSlider;
#X obj 270 523 outlet;
#X msg 347 287 resize \$1;
#X obj 347 263 * 44100;
#X obj 347 310 s \$0-sample;
#X text -17 52 Location em ms;
#X text 5 569 Location em Segundos;
#N canvas 94 82 199 374 tempo 0;
#X obj 96 81 + 0.4;
#X obj 38 78 int;
#X obj 96 105 int;
#X obj 38 101 ==;
#X obj 38 123 sel 0 1;
#X obj 57 146 f;
#X obj 32 146 f;
#X floatatom 46 170 5 0 0 0 - - -;
#X obj 38 56 t f f;
#X obj 46 255 -;
#X obj 73 236 int;
#X obj 46 296 +;
#X obj 86 275 * 60;
#X obj 46 275 * 100;
#X obj 46 212 t f f;
#X obj -12 233 s \$0-temp;
#X msg 84 192 set \$1;
#X obj 84 214 s \$0-min-nbx;
#X obj 46 322 outlet;
#X obj 38 31 inlet;
#X connect 0 0 2 0;
#X connect 0 0 6 1;
#X connect 1 0 3 0;
#X connect 2 0 3 1;
#X connect 3 0 4 0;
#X connect 4 0 6 0;
#X connect 4 1 5 0;
#X connect 5 0 7 0;
#X connect 6 0 7 0;
#X connect 7 0 14 0;
#X connect 7 0 16 0;
#X connect 7 0 15 0;
#X connect 8 0 1 0;
#X connect 8 1 0 0;
#X connect 8 1 5 1;
#X connect 9 0 13 0;
#X connect 10 0 9 1;
#X connect 10 0 12 0;
#X connect 11 0 18 0;
#X connect 12 0 11 1;
#X connect 13 0 11 0;
#X connect 14 0 9 0;
#X connect 14 1 10 0;
#X connect 16 0 17 0;
#X connect 19 0 8 0;
#X restore 347 208 pd tempo;
#X obj 347 237 nbx 6 14 -1e+037 1e+037 0 0 \$0-time-lenght empty empty
0 -8 0 10 -204800 -1 -1 10 256;
#X text 416 234 Em segundos (s \$0-time-lenght);
#X text 40 423 Location em Segundos;
#X text 27 549 PVoc Time;
#X text 258 547 Real Time;
#X obj 347 188 nbx 6 14 -1e+037 1e+037 0 0 empty \$0-temp-nbx empty
0 -8 0 10 -257985 -1 -1 0.1 256;
#X text 406 207 Definição de tempo do usuário;
#X text 417 186 (r \$0-temp-nbx);
#X connect 0 0 1 0;
#X connect 1 0 2 0;
#X connect 1 0 17 1;
#X connect 2 0 4 0;
#X connect 2 0 13 0;
#X connect 2 1 3 0;
#X connect 2 1 4 0;
#X connect 2 1 13 1;
#X connect 4 0 5 1;
#X connect 4 0 15 0;
#X connect 4 0 22 0;
#X connect 5 0 6 0;
#X connect 7 0 8 0;
#X connect 8 0 1 0;
#X connect 9 0 2 0;
#X connect 10 0 17 0;
#X connect 11 0 5 0;
#X connect 12 0 8 0;
#X connect 14 0 21 0;
#X connect 16 0 20 0;
#X connect 17 0 1 0;
#X connect 18 0 19 0;
#X connect 19 0 0 0;
#X connect 21 0 16 0;
#X connect 23 0 25 0;
#X connect 24 0 23 0;
#X connect 28 0 29 0;
#X connect 29 0 24 0;
#X connect 29 0 2 1;
#X connect 34 0 28 0;
#X restore 189 292 pd Time/sliders;
#X obj 129 -35 inlet;
#X obj 167 -35 inlet;
#X obj 205 -35 inlet;
#N canvas 320 283 359 357 Phase-Vocoder 0;
#X obj 1 -4 cnv 15 355 340 empty empty empty 20 12 0 14 -37450 -66577
0;
#X obj 20 153 cnv 15 180 163 empty empty empty 20 12 0 14 -204786 -66577
0;
#X obj 30 254 *~;
#X obj 30 162 rifft~;
#X obj 30 276 outlet~;
#X obj 30 212 *~;
#X obj 45 189 tabreceive~ \$0-hann;
#X obj 45 233 expr 2/(3*$f1);
#X text 76 163 Current Window;
#X text 67 250 Normalize;
#X text 31 296 iFFT;
#X obj 20 14 cnv 15 121 80 empty empty empty 20 12 0 14 -204800 -66577
0;
#X obj 142 14 cnv 15 189 80 empty empty empty 20 12 0 14 -261234 -66577
0;
#X obj 20 95 cnv 15 311 57 empty empty empty 20 12 0 14 -257985 -66577
0;
#X text 30 14 Previous Window;
#N canvas 220 228 573 222 normalize 0;
#X obj 141 118 *~;
#X obj 60 121 *~;
#X obj 120 49 inlet~;
#X obj 60 50 inlet~;
#X obj 141 144 outlet~;
#X obj 60 146 outlet~;
#X text 200 70 Última saída do Phase Vocoder. Usaremos sua fase no
acúmulo de fase (somando com a diferença de fase entre as duas janelas
atuais [back/front]).;
#N canvas 227 457 304 192 (subpatch) 0;
#X obj 21 27 inlet~;
#X obj 223 27 inlet~;
#X obj 22 145 outlet~;
#X obj 22 110 q8_rsqrt~;
#X obj 22 87 +~ 1e-020;
#X obj 22 64 expr~ (pow ($v1 \, 2) + pow($v2 \, 2));
#X text 86 86 Previne Divisão por Zero;
#X text 78 145 = 1 / Magnitude-Amplitude (Z);
#X connect 0 0 5 0;
#X connect 1 0 5 1;
#X connect 3 0 2 0;
#X connect 4 0 3 0;
#X connect 5 0 4 0;
#X restore 75 89 pd 1 / Z;
#X text 15 173 Amplitues normalizadas em 1 \, mas a fase continua a
mesma.;
#X connect 0 0 4 0;
#X connect 1 0 5 0;
#X connect 2 0 7 1;
#X connect 2 0 0 1;
#X connect 3 0 7 0;
#X connect 3 0 1 0;
#X connect 7 0 1 1;
#X connect 7 0 0 0;
#X restore 30 72 pd normalize;
#N canvas 424 426 469 324 FFTs 0;
#X obj 47 208 *~;
#X obj 207 209 *~;
#X obj 222 185 tabreceive~ \$0-hann;
#X obj 47 158 tabread4~ \$0-sample;
#X obj 207 158 tabread4~ \$0-sample;
#X obj 207 233 outlet~;
#X obj 47 232 outlet~;
#X obj 145 6 line~;
#X obj 47 93 -~;
#X obj 145 -24 inlet;
#X obj 87 71 r \$0-overlap;
#X obj 62 184 tabreceive~ \$0-hann;
#X text 194 10 índice de leitura das tabelas;
#X text 27 255 Última Janela de FFT;
#X text 203 256 Janela Atual;
#X connect 0 0 6 0;
#X connect 1 0 5 0;
#X connect 2 0 1 1;
#X connect 3 0 0 0;
#X connect 4 0 1 0;
#X connect 7 0 8 0;
#X connect 7 0 4 0;
#X connect 8 0 3 0;
#X connect 9 0 7 0;
#X connect 10 0 8 1;
#X connect 11 0 0 1;
#X restore 155 42 pd FFTs (Back & Front);
#X obj 228 64 rfft~;
#X obj 155 63 rfft~;
#X text 242 80 T' = (Front);
#X obj 39 127 tabsend~ \$0-re;
#X obj 239 129 tabsend~ \$0-im;
#X obj 23 31 tabreceive~ \$0-re;
#X obj 34 51 tabreceive~ \$0-im;
#X obj 155 19 inlet;
#X obj 201 153 cnv 15 130 163 empty empty empty 20 12 0 14 -233017
-66577 0;
#X obj 219 239 block~;
#X msg 219 217 set \$1 4;
#X text 210 260 Window & Overlaps;
#X obj 219 196 r \$0-window-size;
#X text 155 79 T = (Back);
#N canvas 237 423 443 344 Phase-Acummulation 0;
#X obj 75 139 cnv 15 240 120 empty empty empty 20 12 0 14 -183917 -66577
0;
#X obj 75 58 cnv 15 240 80 empty empty empty 20 12 0 14 -262130 -66577
0;
#X obj 79 81 inlet~;
#X obj 121 81 inlet~;
#X obj 163 81 inlet~;
#X obj 205 81 inlet~;
#X obj 221 190 inlet~;
#X obj 265 190 inlet~;
#X obj 106 235 outlet~;
#X obj 265 236 outlet~;
#N canvas 228 399 374 225 lock/normalize 0;
#X obj 24 45 cnv 15 108 34 empty empty empty 20 12 0 14 -233017 -66577
0;
#X obj 24 80 cnv 15 320 95 empty empty empty 20 12 0 14 -212265 -66577
0;
#X obj 30 147 *~;
#X obj 112 144 *~;
#X obj 30 86 +~ 1e-015;
#X obj 127 85 +~ 1e-015;
#N canvas 116 92 267 162 magnitude 0;
#X obj 14 14 inlet~;
#X obj 200 14 inlet~;
#X obj 25 134 outlet~;
#X obj 25 99 q8_rsqrt~;
#X obj 15 53 expr~ (pow ($v1 \, 2) + pow($v2 \, 2));
#X connect 0 0 4 0;
#X connect 1 0 4 1;
#X connect 3 0 2 0;
#X connect 4 0 3 0;
#X restore 45 114 pd magnitude;
#X obj 112 180 outlet~;
#X obj 30 181 outlet~;
#X obj 117 22 inlet~;
#X obj 30 21 inlet~;
#N canvas 192 277 842 334 shift 0;
#X obj 128 124 lrshift~ 1;
#X obj 8 126 lrshift~ -1;
#X obj 115 208 *~;
#X obj 97 250 +~;
#X obj 97 280 outlet~;
#X obj 95 37 inlet~;
#X obj 329 120 lrshift~ 1;
#X obj 220 114 lrshift~ -1;
#X obj 316 214 *~;
#X obj 298 256 +~;
#X obj 298 286 outlet~;
#X obj 296 33 inlet~;
#X text 429 113 Lock on: phase-locking version R'[k] (Add lrshift~
to R[k]) Channels in phase by adding 2 neighbor complex amplitudes.
Result tends to strongest amplitude channel. No phase change if paralell
phase output/input (quotient neighbor channel have equal phase).;
#X obj 166 156 r \$0-lock;
#X text 420 208 if "lock" on \, they change to agree with inter-channel
phase relationships of the input.;
#X connect 0 0 2 0;
#X connect 1 0 2 0;
#X connect 2 0 3 1;
#X connect 3 0 4 0;
#X connect 5 0 0 0;
#X connect 5 0 1 0;
#X connect 5 0 3 0;
#X connect 6 0 8 0;
#X connect 7 0 8 0;
#X connect 8 0 9 1;
#X connect 9 0 10 0;
#X connect 11 0 6 0;
#X connect 11 0 7 0;
#X connect 11 0 9 0;
#X connect 13 0 8 1;
#X connect 13 0 2 1;
#X restore 30 54 pd shift & lock;
#X text 186 86 somar 1e-015 previne zeros;
#X text 165 133 Normalizar Magnitude em 1;
#X connect 2 0 8 0;
#X connect 3 0 7 0;
#X connect 4 0 6 0;
#X connect 4 0 2 0;
#X connect 5 0 3 1;
#X connect 5 0 6 1;
#X connect 6 0 2 1;
#X connect 6 0 3 0;
#X connect 9 0 11 1;
#X connect 10 0 11 0;
#X connect 11 0 4 0;
#X connect 11 1 5 0;
#X restore 106 148 pd lock/normalize;
#X text 146 59 -;
#X text 79 61 P (Previous);
#X text 163 60 T (Back Window);
#X text 204 171 T' (Front Window);
#N canvas 153 291 503 438 diferenca 0;
#X text 99 221 Re = (a1*a2) + (b1*b2);
#X text 90 118 a1 = $v1;
#X text 277 117 b2 = $v4;
#X text 293 222 Im = (b1*a2) - (a1*b2);
#X obj 93 188 expr~ ($v1 * $v3) + ($v2 * $v4) \; ($v2 * $v3) - ($v1
* $v4);
#X text 152 117 b1 = $v2;
#X text 215 117 a2 = $v3;
#X text 378 137 /;
#X text 375 125 Z1 = (a1 + b1i);
#X text 376 151 Z2 = (a2 + b2i);
#X text 431 139 /;
#X obj 93 136 inlet~;
#X obj 156 135 inlet~;
#X obj 219 135 inlet~;
#X obj 282 135 inlet~;
#X obj 93 247 outlet~;
#X obj 282 245 outlet~;
#X text 134 93 Z1;
#X text 204 93 /;
#X text 263 94 Z2;
#X text 100 276 R[k];
#X text 290 270 R[k];
#X text 116 16 Diferença de Fase com Divisão Complexa;
#X text 70 152 Re;
#X text 136 154 Im;
#X text 200 153 Re;
#X text 266 155 Im;
#X text 17 48 (s[m-1 \, k]) : Previous Window (Z1);
#X text 266 48 T : Back Window (Z2);
#X text 236 47 -;
#X text 66 355 A diferença é obtida por meio da mateméatica de números
complexos (divisão) \, na forma retangular.;
#X text 66 398 A Magnitude (Amplitude) é igual a 1 / Z da Janela Anterior.
;
#X text 66 308 A fase é a Diferença de Fase entre o último resultado
de análise do Phase Vovoder (s[m-1 \, k] e o FFT da janela anterior
(T).;
#X connect 4 0 15 0;
#X connect 4 1 16 0;
#X connect 11 0 4 0;
#X connect 12 0 4 1;
#X connect 13 0 4 2;
#X connect 14 0 4 3;
#X restore 88 113 pd diferenca de fase;
#X text 30 270 Resultado tem a Amplitude da Janela Atual (T') e a Fase
do Acúmulo de Fase: (P + (T' - T))!;
#N canvas 310 344 539 414 Calcular 0;
#X text 109 189 Re = (a1*a2) - (b1*b2);
#X text 297 185 Im = (b1*a2) + (a1*b2);
#X text 96 84 a1 = $v1;
#X text 283 83 b2 = $v4;
#X text 158 83 b1 = $v2;
#X text 221 83 a2 = $v3;
#X text 391 120 Z1 = (a1 + b1i);
#X text 392 146 Z2 = (a2 + b2i);
#X obj 99 104 inlet~;
#X obj 162 103 inlet~;
#X obj 225 103 inlet~;
#X obj 288 103 inlet~;
#X obj 98 216 outlet~;
#X obj 288 210 outlet~;
#X obj 99 156 expr~ ($v1 * $v3) - ($v2 * $v4) \; ($v2 * $v3) + ($v1
* $v4);
#X text 395 134 *;
#X text 447 134 *;
#X text 141 61 Z1;
#X text 211 61 *;
#X text 271 61 Z2;
#X text 64 281 A soma das fases é obtida pela Multiplicação de números
complexos na forma retangular.;
#X text 73 119 Re;
#X text 142 120 Im;
#X text 207 119 Re;
#X text 274 120 Im;
#X text 118 10 Soma de Fases pela Multiplicação Complexa;
#X text 244 36 T' : Janela Atual (Z2);
#X text 14 36 (P - T) : Diferença de Fases (Z1);
#X text 223 36 +;
#X text 64 243 A fase é a soma da fase da Janela Atual e a diferença
de fases obtida anteriormente.;
#X text 65 320 A multiplicação também implica que as Amplitudes sejam
multiplicadas \, mas como a Amplitude do resultado da diferença de
fase foi normalizado \, seu valor é igual a 1! Portanto \, a Amplitude
da janela atual foi multuplicada por 1 e \, assim \, o que temos é
a Magnitude igual a da Janela Atual.;
#X connect 8 0 14 0;
#X connect 9 0 14 1;
#X connect 10 0 14 2;
#X connect 11 0 14 3;
#X connect 14 0 12 0;
#X connect 14 1 13 0;
#X restore 106 213 pd Calcular Acúmulo de Fase;
#X text 64 32 Acúmulo é Diferença de Fase (P-T) + Fase de T';
#X connect 2 0 15 0;
#X connect 3 0 15 1;
#X connect 4 0 15 2;
#X connect 5 0 15 3;
#X connect 6 0 17 2;
#X connect 7 0 17 3;
#X connect 10 0 17 0;
#X connect 10 1 17 1;
#X connect 15 0 10 0;
#X connect 15 1 10 1;
#X connect 17 0 8 0;
#X connect 17 1 9 0;
#X restore 30 103 pd Phase-Acummulation (Phase Vocoding);
#X connect 2 0 4 0;
#X connect 3 0 5 0;
#X connect 5 0 2 0;
#X connect 6 0 5 1;
#X connect 7 0 2 1;
#X connect 15 0 31 0;
#X connect 15 1 31 1;
#X connect 16 0 18 0;
#X connect 16 1 17 0;
#X connect 17 0 31 4;
#X connect 17 1 31 5;
#X connect 18 0 31 2;
#X connect 18 1 31 3;
#X connect 22 0 15 0;
#X connect 23 0 15 1;
#X connect 24 0 16 0;
#X connect 27 0 26 0;
#X connect 29 0 27 0;
#X connect 29 0 7 0;
#X connect 31 0 3 0;
#X connect 31 0 20 0;
#X connect 31 1 3 1;
#X connect 31 1 21 0;
#X restore 63 297 pd Phase-Vocoder;
#N canvas 188 252 644 449 Tables 0;
#N canvas 0 50 450 300 (subpatch) 0;
#X array \$0-im 4096 float 0;
#X coords 0 1000 4096 -1000 400 100 1;
#X restore 35 325 graph;
#N canvas 0 50 450 300 (subpatch) 0;
#X array \$0-re 4096 float 0;
#X coords 0 500 4096 -500 400 100 1;
#X restore 31 202 graph;
#N canvas 0 50 450 300 (subpatch) 0;
#X array \$0-hann 2048 float 0;
#X coords 0 1 2047 0 250 100 1;
#X restore 32 57 graph;
#X obj 459 199 osc~;
#X obj 459 224 *~ -0.5;
#X obj 459 248 +~ 0.5;
#X obj 448 271 tabwrite~ \$0-hann;
#X obj 305 102 /;
#X obj 394 71 samplerate~;
#X obj 421 108 swap;
#X obj 421 132 /;
#X obj 312 123 * 1000;
#X obj 305 44 t f b f;
#X msg 440 21 resize \$1;
#X obj 440 45 s \$0-hann;
#X msg 480 177 0;
#X obj 421 155 t f b;
#X obj 304 17 r \$0-window-size;
#X obj 312 145 s \$0-window-msec;
#X obj 305 167 s \$0-window-sec;
#X connect 3 0 4 0;
#X connect 4 0 5 0;
#X connect 5 0 6 0;
#X connect 7 0 11 0;
#X connect 7 0 19 0;
#X connect 8 0 7 1;
#X connect 8 0 9 1;
#X connect 9 0 10 0;
#X connect 9 1 10 1;
#X connect 10 0 16 0;
#X connect 11 0 18 0;
#X connect 12 0 7 0;
#X connect 12 0 9 0;
#X connect 12 1 8 0;
#X connect 12 2 13 0;
#X connect 13 0 14 0;
#X connect 15 0 3 1;
#X connect 16 0 3 0;
#X connect 16 1 6 0;
#X connect 16 1 15 0;
#X connect 17 0 12 0;
#X restore 115 325 pd Tables;
#N canvas 624 563 561 252 Loop 0;
#X obj 154 75 inlet;
#X obj 193 75 inlet;
#N canvas 540 50 715 696 Off 0;
#X obj 343 127 inlet;
#X obj 440 126 inlet;
#X msg 249 414 1;
#X msg 285 414 0;
#X obj 194 232 >;
#X obj 194 256 sel 1;
#X obj 216 525 spigot;
#X obj 429 281 < 0;
#X obj 429 312 sel 1;
#X obj 262 352 r \$0-RadioValue;
#X obj 262 376 sel 0 1 2;
#X obj 326 577 s \$0-loop-Loc;
#X obj 216 553 trigger bang float;
#X obj 204 614 s \$0-set-freeze;
#X msg 211 589 1;
#X floatatom 510 200 5 0 0 0 - - -;
#X obj 440 152 moses 1e-005;
#X obj 502 177 moses;
#X obj 529 152 r \$0-time-lenght;
#X obj 149 365 f;
#X floatatom 151 417 5 0 0 0 - - -;
#X obj 151 443 * 1000;
#X obj 83 107 r \$0-freeze-it;
#X obj 194 33 r \$0-Rev-Status;
#X obj 82 205 f;
#X obj 82 229 sel -1;
#X floatatom 194 55 5 0 0 0 - - -;
#X msg 204 418 0;
#X obj 198 118 f;
#X floatatom 198 142 5 0 0 0 - - -;
#X obj 194 76 t f b;
#X msg 129 523 0;
#X obj 85 271 f;
#X obj 85 295 sel 0;
#X obj 123 278 + 1;
#X obj 83 132 sel 0 1;
#X obj 423 521 spigot;
#X obj 444 352 f;
#X floatatom 446 404 5 0 0 0 - - -;
#X obj 446 430 * 1000;
#X obj 542 588 s \$0-loop-Loc;
#X obj 432 564 trigger bang float;
#X obj 420 625 s \$0-set-freeze;
#X msg 427 600 1;
#X msg 352 519 0;
#X text 283 101 Location em Segundos;
#X text 429 102 Tempo Real;
#X obj 393 382 del 200;
#X connect 0 0 4 0;
#X connect 0 0 7 0;
#X connect 1 0 4 1;
#X connect 1 0 16 0;
#X connect 2 0 6 1;
#X connect 2 0 36 1;
#X connect 3 0 6 1;
#X connect 3 0 36 1;
#X connect 4 0 5 0;
#X connect 5 0 27 0;
#X connect 6 0 12 0;
#X connect 7 0 8 0;
#X connect 8 0 37 0;
#X connect 8 0 47 0;
#X connect 9 0 10 0;
#X connect 10 0 2 0;
#X connect 10 1 3 0;
#X connect 10 2 3 0;
#X connect 12 0 14 0;
#X connect 12 0 31 0;
#X connect 12 1 11 0;
#X connect 14 0 13 0;
#X connect 15 0 19 1;
#X connect 15 0 37 1;
#X connect 16 1 17 0;
#X connect 17 0 15 0;
#X connect 18 0 17 1;
#X connect 19 0 20 0;
#X connect 20 0 21 0;
#X connect 21 0 6 0;
#X connect 22 0 35 0;
#X connect 23 0 26 0;
#X connect 24 0 25 0;
#X connect 25 0 32 0;
#X connect 26 0 30 0;
#X connect 27 0 6 0;
#X connect 28 0 29 0;
#X connect 29 0 24 1;
#X connect 30 0 28 1;
#X connect 30 1 28 0;
#X connect 31 0 32 1;
#X connect 32 0 33 0;
#X connect 32 0 34 0;
#X connect 33 0 19 0;
#X connect 34 0 32 1;
#X connect 35 0 24 0;
#X connect 36 0 41 0;
#X connect 37 0 38 0;
#X connect 38 0 39 0;
#X connect 39 0 36 0;
#X connect 41 0 43 0;
#X connect 41 0 44 0;
#X connect 41 1 40 0;
#X connect 43 0 42 0;
#X connect 44 0 32 1;
#X connect 47 0 37 0;
#X restore 159 132 pd Off;
#X obj 340 180 s \$0-AutoRadio;
#X msg 340 100 label Off;
#X obj 340 74 sel 0 1 2;
#X obj 340 50 r \$0-RadioValue;
#X msg 358 156 label Bounce;
#N canvas 61 94 530 608 Bounce 0;
#X obj 182 489 f;
#X obj 170 389 moses;
#X obj 101 406 moses 0;
#X obj 165 454 bng 15 250 50 0 empty empty empty 17 7 0 10 -262144
-1 -1;
#X obj 70 459 bng 15 250 50 0 empty empty empty 17 7 0 10 -262144 -1
-1;
#X obj 267 465 expr abs($f1) * -1;
#X obj 267 442 r \$0-speed;
#X obj 139 529 s \$0-speed;
#X obj 71 504 f;
#X obj 91 460 r \$0-speed;
#X obj 91 483 expr abs($f1);
#N canvas 108 65 450 300 time 0;
#X obj 195 29 r \$0-time-lenght;
#X floatatom 185 57 5 0 0 0 - - -;
#X obj 171 31 bng 15 250 50 0 empty empty empty 17 7 0 10 -262144 -1
-1;
#X obj 225 148 s \$0-rcv-ph-slider;
#X obj 231 128 s \$0-rcv-time-slider;
#X msg 225 108 range 0 \$1;
#X obj 91 166 outlet;
#X connect 0 0 1 0;
#X connect 1 0 5 0;
#X connect 1 0 6 0;
#X connect 2 0 1 0;
#X connect 5 0 3 0;
#X connect 5 0 4 0;
#X restore 389 304 pd time length;
#X obj 103 139 moses 0;
#X obj 104 111 r \$0-speed;
#X obj 142 161 bng 15 250 50 0 empty empty empty 17 7 0 10 -262144
-1 -1;
#X obj 103 161 bng 15 250 50 0 empty empty empty 17 7 0 10 -262144
-1 -1;
#X obj 95 251 sel -1 1;
#X obj 95 225 f;
#X msg 105 185 -1;
#X obj 52 77 r \$0-rev-bang;
#X obj 233 299 spigot;
#X obj 267 275 tgl 15 0 empty empty empty 17 7 0 10 -262144 -1 -1 0
1;
#X obj 296 313 spigot;
#X obj 330 289 tgl 15 0 empty empty empty 17 7 0 10 -262144 -1 -1 0
1;
#X obj 264 176 r \$0-RadioValue;
#X obj 264 200 sel 0 1 2;
#X msg 303 236 1;
#X msg 263 235 0;
#X obj 244 111 inlet;
#X obj 370 176 >;
#X obj 370 200 sel 1;
#X obj 388 82 inlet;
#X obj 42 184 bng 15 250 50 0 empty empty empty 17 7 0 10 -262144 -1
-1;
#X obj 128 224 s \$0-Rev-Status;
#X msg 140 188 1;
#X text 214 74 Location em Segundos;
#X text 372 50 Tempo Real;
#X connect 0 0 7 0;
#X connect 1 1 3 0;
#X connect 2 0 4 0;
#X connect 3 0 0 0;
#X connect 4 0 8 0;
#X connect 5 0 0 1;
#X connect 6 0 5 0;
#X connect 8 0 7 0;
#X connect 9 0 10 0;
#X connect 10 0 8 1;
#X connect 11 0 1 1;
#X connect 12 0 15 0;
#X connect 12 1 14 0;
#X connect 13 0 12 0;
#X connect 14 0 34 0;
#X connect 15 0 18 0;
#X connect 16 0 4 0;
#X connect 16 1 3 0;
#X connect 17 0 16 0;
#X connect 18 0 17 1;
#X connect 18 0 33 0;
#X connect 19 0 32 0;
#X connect 20 0 2 0;
#X connect 20 0 1 0;
#X connect 21 0 20 1;
#X connect 22 0 3 0;
#X connect 23 0 22 1;
#X connect 24 0 25 0;
#X connect 25 0 27 0;
#X connect 25 1 27 0;
#X connect 25 2 26 0;
#X connect 26 0 21 0;
#X connect 26 0 23 0;
#X connect 27 0 21 0;
#X connect 27 0 23 0;
#X connect 28 0 20 0;
#X connect 28 0 29 0;
#X connect 29 0 30 0;
#X connect 30 0 22 0;
#X connect 31 0 29 1;
#X connect 32 0 17 0;
#X connect 34 0 17 1;
#X connect 34 0 33 0;
#X restore 47 132 pd Bounce;
#X msg 347 131 label Loop;
#X text 23 74 Location em Segundos;
#X text 233 73 Tempo Real;
#X text 347 25 V-Radio Label;
#N canvas 137 450 409 374 Loop 0;
#X obj 82 47 inlet;
#X obj 154 44 inlet;
#X obj 170 215 r \$0-RadioValue;
#X obj 170 239 sel 0 1 2;
#X msg 209 275 1;
#X msg 169 274 0;
#X obj 136 119 >;
#X obj 136 143 sel 1;
#X msg 136 274 0;
#X obj 136 326 s \$0-loop-Loc;
#X obj 136 303 spigot;
#X obj 82 226 f;
#X obj 82 113 < 0;
#X obj 82 144 sel 1;
#X floatatom 216 123 5 0 0 0 - - -;
#X obj 154 75 moses 1e-005;
#X floatatom 82 251 5 0 0 0 - - -;
#X obj 82 274 * 1000;
#X obj 216 100 moses;
#X obj 243 75 r \$0-time-lenght;
#X obj 280 120 >;
#X obj 282 147 sel 1;
#X obj 250 146 f;
#X text 11 24 Location em Segundos;
#X text 157 25 Tempo Real;
#X connect 0 0 6 0;
#X connect 0 0 12 0;
#X connect 1 0 15 0;
#X connect 1 0 20 0;
#X connect 2 0 3 0;
#X connect 3 0 5 0;
#X connect 3 1 4 0;
#X connect 3 2 5 0;
#X connect 4 0 10 1;
#X connect 5 0 10 1;
#X connect 6 0 7 0;
#X connect 7 0 8 0;
#X connect 8 0 10 0;
#X connect 10 0 9 0;
#X connect 11 0 16 0;
#X connect 12 0 13 0;
#X connect 13 0 11 0;
#X connect 14 0 11 1;
#X connect 14 0 6 1;
#X connect 15 1 18 0;
#X connect 16 0 17 0;
#X connect 17 0 10 0;
#X connect 18 0 14 0;
#X connect 19 0 18 1;
#X connect 19 0 20 1;
#X connect 19 0 22 1;
#X connect 20 0 21 0;
#X connect 21 0 22 0;
#X connect 22 0 14 0;
#X restore 108 132 pd Loop;
#N canvas 253 50 189 211 Rec-Loop 0;
#X obj 36 15 inlet;
#X obj 36 80 sel 1;
#X obj 51 37 r \$0-time-lenght;
#X obj 36 103 spigot;
#X obj 48 134 s \$0-recpv;
#X obj 77 81 tgl 15 0 empty \$0-Rec-Loop-Tgl empty 17 7 0 10 -204786
-1 -1 0 1;
#X obj 36 57 >;
#X obj 17 161 s \$0-Loop-PVoc-Slider;
#X msg 17 134 0;
#X connect 0 0 6 0;
#X connect 1 0 3 0;
#X connect 2 0 6 1;
#X connect 3 0 4 0;
#X connect 3 0 8 0;
#X connect 5 0 3 1;
#X connect 6 0 1 0;
#X connect 8 0 7 0;
#X restore 220 133 pd Rec-Loop;
#X connect 0 0 8 0;
#X connect 0 0 13 0;
#X connect 0 0 2 0;
#X connect 1 0 8 1;
#X connect 1 0 13 1;
#X connect 1 0 2 1;
#X connect 1 0 14 0;
#X connect 4 0 3 0;
#X connect 5 0 4 0;
#X connect 5 1 9 0;
#X connect 5 2 7 0;
#X connect 6 0 5 0;
#X connect 7 0 3 0;
#X connect 9 0 3 0;
#X restore 217 313 pd Loop;
#X obj 154 72 tgl 23 0 \$0-Rec-Loop-Tgl adnaqndln-0 Rec-Loop -11 -7
0 10 -95776 -243549 -1 0 1;
#X text 75 406 Bug - Loop Rec e Loop Backwards...;
#X obj 406 73 r selector;
#X obj 482 247 r frz;
#X obj 482 267 r lck;
#X obj 410 138 r recl;
#X obj 404 161 r transpo;
#X obj 383 271 r motion;
#X obj 621 -14 declare -stdpath blokas;
#X obj 444 181 - 0.5;
#X obj 400 451 bng 15 250 50 0 empty empty empty 17 7 0 10 -262144
-1 -1;
#X obj 431 456 tgl 15 0 empty empty empty 17 7 0 10 -262144 -1 -1 0
1;
#X obj 402 477 spigot;
#X obj 398 420 r rewind_btn;
#X obj 535 451 bng 15 250 50 0 empty empty empty 17 7 0 10 -262144
-1 -1;
#X obj 566 456 tgl 15 0 empty empty empty 17 7 0 10 -262144 -1 -1 0
1;
#X obj 537 477 spigot;
#X obj 534 418 r record_btn;
#X obj 639 450 bng 15 250 50 0 empty empty empty 17 7 0 10 -262144
-1 -1;
#X obj 670 455 tgl 15 0 empty empty empty 17 7 0 10 -262144 -1 -1 0
1;
#X obj 641 476 spigot;
#X obj 635 415 r bnc_btn;
#X obj 720 413 r pse_btn;
#X obj 720 444 bng 15 250 50 0 empty empty empty 17 7 0 10 -262144
-1 -1;
#X obj 751 449 tgl 15 0 empty empty empty 17 7 0 10 -262144 -1 -1 0
1;
#X obj 722 470 spigot;
#X obj 13 446 r \$0-AutoRadio;
#X obj 13 559 s selector;
#X obj 173 594 s motion;
#X obj 121 446 r \$0-speed-preset;
#X obj 173 569 + 0.5;
#X obj 353 591 s transpo;
#X obj 249 446 r \$0-transpo-set;
#X obj 246 469 unpack s f;
#X obj 434 208 * 4000;
#X obj 363 203 change;
#X obj 313 504 / 4000;
#X obj 312 527 + 0.5;
#X floatatom 312 549 5 0 0 0 - - -;
#X obj 113 495 unpack s f;
#X obj 173 547 / 400;
#X obj 404 346 - 0.5;
#X obj 404 368 * 400;
#X obj 404 390 change;
#X obj 19 474 r \$0-RadioValue;
#X obj 9 514 change;
#X obj 452 526 r \$0-pvgain;
#X obj 453 550 change;
#X obj 453 572 s vol;
#X obj 559 520 r \$0-Rec-Loop-Tgl;
#X obj 559 542 change;
#X obj 559 564 s recl;
#X obj 707 524 r \$0-lock;
#X obj 707 546 change;
#X obj 707 568 s lck;
#X obj 792 544 change;
#X obj 792 566 s frz;
#X obj 792 522 r \$0-freeze-it;
#X obj 834 409 r \$0-Loc-Knob;
#X obj 834 431 change;
#X obj 941 397 r \$0-VocTime;
#X obj 942 430 int;
#X obj 942 455 change;
#X obj 942 482 / 100;
#X obj 943 507 s position-load;
#X obj 833 455 s position-load;
#X obj 1109 256 r k0;
#X obj 1121 298 r k1;
#X obj 1220 296 r k2;
#X obj 1221 232 r k3;
#X obj 1213 190 r k4;
#X obj 1168 165 r k5;
#X obj 1211 130 r k6;
#X obj 1143 100 r k7;
#X obj 1092 123 r k8;
#X obj 1088 148 r k9;
#X obj 1074 185 r k10;
#X obj 1032 244 r k11;
#X obj 1110 463 cyclone/scale 0 127 0 2;
#X obj 1109 499 cyclone/scale 0 127 0 500;
#X obj 1109 541 cyclone/scale 0 127 0 5000;
#X obj 1115 574 cyclone/scale 0 127 0 1;
#X obj 799 357 cyclone/scale 0 127 0 7;
#X msg 770 381 set \$1;
#X obj 698 327 print;
#X obj 744 98 cyclone/scale 0 127 0.1 10;
#X connect 4 0 3 1;
#X connect 5 0 42 0;
#X connect 5 1 38 0;
#X connect 11 0 26 0;
#X connect 12 0 26 1;
#X connect 34 0 36 0;
#X connect 35 0 3 0;
#X connect 38 0 31 0;
#X connect 38 0 44 0;
#X connect 38 1 44 1;
#X connect 39 0 20 0;
#X connect 40 0 21 0;
#X connect 41 0 27 0;
#X connect 42 0 34 0;
#X connect 47 0 33 0;
#X connect 48 0 28 0;
#X connect 49 0 10 0;
#X connect 50 0 45 0;
#X connect 51 0 54 0;
#X connect 52 0 86 0;
#X connect 54 0 79 0;
#X connect 55 0 57 0;
#X connect 56 0 57 1;
#X connect 57 0 20 0;
#X connect 58 0 56 0;
#X connect 58 0 55 0;
#X connect 59 0 61 0;
#X connect 60 0 61 1;
#X connect 61 0 21 0;
#X connect 62 0 60 0;
#X connect 62 0 59 0;
#X connect 63 0 65 0;
#X connect 64 0 65 1;
#X connect 65 0 32 0;
#X connect 66 0 64 0;
#X connect 66 0 63 0;
#X connect 67 0 69 0;
#X connect 67 0 68 0;
#X connect 68 0 70 0;
#X connect 69 0 70 1;
#X connect 70 0 27 0;
#X connect 71 0 90 0;
#X connect 74 0 84 0;
#X connect 75 0 73 0;
#X connect 77 0 78 0;
#X connect 78 1 81 0;
#X connect 79 0 80 0;
#X connect 81 0 82 0;
#X connect 82 0 83 0;
#X connect 83 0 76 0;
#X connect 84 1 85 0;
#X connect 85 0 75 0;
#X connect 86 0 87 0;
#X connect 87 0 88 0;
#X connect 89 0 90 0;
#X connect 90 0 72 0;
#X connect 91 0 92 0;
#X connect 92 0 93 0;
#X connect 94 0 95 0;
#X connect 95 0 96 0;
#X connect 97 0 98 0;
#X connect 98 0 99 0;
#X connect 100 0 101 0;
#X connect 102 0 100 0;
#X connect 103 0 104 0;
#X connect 104 0 110 0;
#X connect 105 0 106 0;
#X connect 106 0 107 0;
#X connect 107 0 108 0;
#X connect 108 0 109 0;
#X connect 111 0 123 0;
#X connect 112 0 124 0;
#X connect 113 0 125 0;
#X connect 114 0 126 0;
#X connect 115 0 95 0;
#X connect 116 0 98 0;
#X connect 117 0 100 0;
#X connect 118 0 130 0;
#X connect 119 0 127 0;
#X connect 120 0 104 0;
#X connect 121 0 86 0;
#X connect 122 0 54 0;
#X connect 123 0 33 0;
#X connect 124 0 85 0;
#X connect 125 0 81 0;
#X connect 126 0 92 0;
#X connect 127 0 128 0;
#X connect 128 0 11 0;
#X connect 128 0 129 0;
#X connect 130 0 22 0;
#X coords 0 1 100 -1 389 156 1 0 0;
#X restore 100 114 graph;
#N canvas 737 88 737 205 (subpatch) 0;
#X obj 1 1 cnv 15 520 83 empty empty empty 20 12 0 14 -216373 -66577
0;
#X obj 7 9 hsl 445 33 0 10 0 0 \$0-snd-time-slider \$0-rcv-time-slider
empty -2 -8 0 10 -195581 -1 -1 0 1;
#X obj 7 46 hsl 445 33 0 10 0 0 \$0-snd-ph-slider \$0-rcv-ph-slider
empty -2 -8 0 10 -261234 -167937 -1 0 1;
#X text 469 0 Real;
#X text 470 37 PVoc;
#N canvas 1142 377 201 444 (subpatch) 0;
#X obj 1 1 cnv 15 60 20 empty \$0-RealCanvasTime 0:00 6 12 1 20 -191420
-1 0;
#X obj 30 217 pack float float;
#X obj 8 152 f;
#X obj 8 176 moses 10;
#X obj 45 296 pack symbol float;
#X obj 74 114 trigger b f;
#X obj 19 359 s \$0-RealCanvasTime;
#X msg 19 337 label \$2:\$1;
#X obj 8 247 makefilename 0%d;
#X obj 9 59 r \$0-time-sec;
#X obj 74 85 r \$0-time-min;
#X connect 1 0 7 0;
#X connect 2 0 3 0;
#X connect 3 0 8 0;
#X connect 3 1 1 0;
#X connect 4 0 7 0;
#X connect 5 0 2 0;
#X connect 5 1 1 1;
#X connect 5 1 4 1;
#X connect 7 0 6 0;
#X connect 8 0 4 0;
#X connect 9 0 2 0;
#X connect 10 0 5 0;
#X coords 0 1 100 -1 62 22 1 0 0;
#X restore 457 15 graph;
#N canvas 313 50 340 521 (subpatch) 0;
#X obj 1 1 cnv 15 60 20 empty \$0-PVCanvasTime 0:00 6 12 1 20 -261234
-1 0;
#X obj 8 210 pack float float;
#X obj -14 145 f;
#X obj -14 169 moses 10;
#X obj 23 289 pack symbol float;
#X obj 52 107 trigger b f;
#X msg -3 330 label \$2:\$1;
#X obj -14 240 makefilename 0%d;
#X obj -3 351 s \$0-PVCanvasTime;
#X obj -15 54 r \$0-pv-sec;
#X obj 52 78 r \$0-pv-min;
#X connect 1 0 6 0;
#X connect 2 0 3 0;
#X connect 3 0 7 0;
#X connect 3 1 1 0;
#X connect 4 0 6 0;
#X connect 5 0 2 0;
#X connect 5 1 1 1;
#X connect 5 1 4 1;
#X connect 6 0 8 0;
#X connect 7 0 4 0;
#X connect 9 0 2 0;
#X connect 10 0 5 0;
#X coords 0 1 62 -1 62 22 1 0 0;
#X restore 457 52 graph;
#X coords 0 1 100 -1 522 85 1 0 0;
#X restore 98 270 graph;
#N canvas 1198 339 393 320 (subpatch) 0;
#X obj 1 1 cnv 15 129 154 empty \$0-Pre-Cnv 3-Lento 5 26 0 14 -233017
-66577 0;
#X obj 5 102 hradio 15 1 0 8 \$0-save-preset \$0-read-preset Salvar-Preset
0 -8 0 10 -260187 -1 -1 2;
#X obj 105 135 bng 17 250 50 0 \$0-save-preset-bang \$0-PorraNingumis
Save -4 -7 0 10 -231181 -1 -1;
#X obj 5 60 hradio 15 1 0 8 \$0-read-preset \$0-get-preset Ler-Preset
0 -8 0 10 -204786 -1 -1 2;
#X symbolatom 10 158 14 0 0 0 - #0-Preset-Name #0-pre-name;
#X text 2 4 #;
#X text 20 3 Nome:;
#X text 0 70 _____________________;
#X text 1 30 _____________________;
#X text 5 118 Nome:;
#X obj 70 1 cnv 15 60 16 empty empty presets 5 7 0 12 -58255 -262144
0;
#X msg 189 183 preset \$1;
#X obj 186 143 r \$0-pre-name;
#X obj 188 235 s screenLine5;
#X obj 180 40 r preset;
#X connect 11 0 13 0;
#X connect 12 0 11 0;
#X connect 14 0 3 0;
#X coords 0 1 112 -1 131 156 1 0 0;
#X restore 491 114 graph;
#X text 123 354 === LIVE PHASE VOCODER ===;
#X obj 100 64 inlet~;
#X obj 71 385 outlet~;
#N canvas 2 82 1824 869 MidiConfig 0;
#N canvas 3 92 509 314 foot 0;
#X obj 29 113 pgmin 1;
#X obj 14 175 bng 15 250 50 0 \$0-resetpv empty empty 17 7 0 10 -262144
-1 -1;
#X obj 41 174 bng 15 250 50 0 \$0-recpv empty empty 17 7 0 10 -262144
-1 -1;
#X floatatom 324 219 5 0 0 0 - - -;
#X obj 324 194 expr ($f1 - 59) * 20;
#X obj 208 122 expr (($f1 - 63) * 2) + 7;
#X floatatom 249 170 5 0 0 0 - - -;
#X obj 208 193 s \$0-speed-preset;
#X obj 208 83 ctlin 27 \$2;
#X obj 323 156 ctlin 7 \$2;
#X obj 68 178 bng 15 250 50 0 \$0-set-freeze empty empty 17 7 0 10
-262144 -1 -1;
#X obj 27 140 sel 1 2 3;
#X obj 324 242 s \$0-transpo-set;
#X connect 0 0 11 0;
#X connect 3 0 12 0;
#X connect 4 0 3 0;
#X connect 5 0 7 0;
#X connect 6 0 7 0;
#X connect 11 0 1 0;
#X connect 11 1 2 0;
#X connect 11 2 10 0;
#X restore 816 192 pd foot pedal;
#X obj 612 278 expr ($f1 - 48) * 100;
#X obj 519 278 - 8192;
#X obj 520 361 +;
#X obj 520 340 f;
#X text 86 287 Vol;
#X text 530 229 Pitch;
#X obj 554 125 * 5;
#X text 474 81 Motion -;
#X text 558 82 Motion +;
#X obj 471 123 * -5;
#X obj 163 417 ctlin 74;
#X obj 405 296 * 2;
#X obj 405 317 - 127;
#X text 163 397 Rec;
#X obj 521 399 s \$0-transpo-set;
#X obj 163 440 s \$0-recpv;
#X obj 75 351 s \$0-pvol;
#X obj 71 437 s \$0-resetpv;
#X obj 471 101 ctlin 11 \$2;
#X obj 554 102 ctlin 12 \$2;
#X obj 71 413 ctlin 73 \$2;
#X obj 405 272 ctlin 1 \$2;
#X obj 519 255 bendin \$2;
#X obj 612 255 notein \$2;
#X text 212 81 Location Knob;
#X obj 216 123 expr ($f1 / 127);
#X obj 218 197 s \$0-LocControl;
#X obj 507 153 s \$0-speed-preset;
#N canvas 70 88 500 270 (subpatch) 0;
#X obj 1 1 cnv 15 75 15 empty \$0-MIDI-Learn-CNV Control:10 4 7 0 10
-261682 -66577 0;
#X obj 27 54 ctlin;
#X obj 17 191 s \$0-MIDI-Learn-CNV;
#X msg 30 150 label Control:\$1;
#X obj 120 47 pgmin;
#X msg 81 94 label Program:\$1;
#X msg 213 152 label none;
#X obj 213 128 loadbang;
#X obj 271 42 notein;
#X msg 227 80 label Note:\$1;
#X obj 376 70 bendin;
#X msg 359 96 label Bend-Wheel;
#X connect 1 1 3 0;
#X connect 3 0 2 0;
#X connect 4 0 5 0;
#X connect 5 0 2 0;
#X connect 6 0 2 0;
#X connect 7 0 6 0;
#X connect 8 0 9 0;
#X connect 9 0 2 0;
#X connect 10 0 11 0;
#X connect 11 0 2 0;
#X coords 0 1 70 -1 77 17 1 0 0;
#X restore 105 139 graph;
#X text 120 119 Midi In:;
#X obj 216 27 ctlin 10 \$2;
#X text 71 395 Rewind;
#X obj 259 444 s \$0-rcv-P-C;
#X text 254 391 Pause/Continue;
#X obj 260 413 ctlin;
#X obj 94 525 s \$0-set-lock;
#X text 111 480 Lock;
#X obj 108 500 ctlin;
#X obj 191 525 s \$0-set-freeze;
#X obj 217 499 ctlin;
#X text 216 480 Freeze;
#X obj 324 529 s \$0-set-freeze;
#X obj 350 503 ctlin;
#X text 348 484 Bounce;
#X obj 612 298 t b f;
#X obj 75 306 ctlin 87 \$2;
#X obj 233 328 s \$0-AutoRadio;
#X msg 231 297 0;
#X msg 263 296 1;
#X msg 301 296 2;
#X obj 208 269 ctlin;
#X obj 250 268 ctlin;
#X obj 297 267 ctlin;
#X msg 489 491 0;
#X msg 536 489 1;
#X msg 581 489 2;
#X obj 487 462 ctlin;
#X obj 529 461 ctlin;
#X obj 576 460 ctlin;
#X text 630 431 Presets;
#X obj 665 570 s \$0-get-preset;
#X msg 622 488 3;
#X msg 667 486 4;
#X msg 712 484 5;
#X msg 756 484 6;
#X msg 800 486 7;
#X obj 618 457 ctlin;
#X obj 660 456 ctlin;
#X obj 707 455 ctlin;
#X obj 750 454 ctlin;
#X obj 797 453 ctlin;
#X text 220 245 V-radio(loop/bounce);
#X obj 935 379 demux 0 1 2;
#X obj 1067 379 demux 0 1 2;
#X obj 1193 379 demux 0 1 2;
#X obj 1306 379 demux 0 1 2;
#X obj 935 346 r knob1;
#X obj 1067 346 r knob2;
#X obj 1193 346 r knob3;
#X obj 1306 346 r knob4;
#X obj 1393 105 sel 0 1 2;
#X obj 1395 63 r selectScreen;
#X obj 1342 106 s led;
#X obj 349 621 r notes;
#X obj 349 647 unpack;
#X floatatom 349 676 5 0 0 0 - - -;
#X text 352 600 keyboard;
#X obj 31 270 r vol;
#X floatatom 911 448 5 0 0 0 - - -;
#X obj 592 200 s \$0-djfnskjnfksjdnkjsdnfks;
#X floatatom 1072 568 5 0 0 0 - - -;
#X obj 1070 539 * 128;
#X floatatom 1176 559 5 0 0 0 - - -;
#X obj 1174 530 * 128;
#X floatatom 1300 567 5 0 0 0 - - -;
#X obj 1327 495 * 128;
#X msg 652 357 1:Pitch \$1;
#X obj 655 380 s screenLine4;
#X obj 470 780 bng 15 250 50 0 empty empty empty 17 7 0 10 -262144
-1 -1;
#X obj 495 781 tgl 15 0 empty empty empty 17 7 0 10 -262144 -1 -1 0
1;
#X obj 474 808 spigot;
#X obj 546 776 bng 15 250 50 0 empty empty empty 17 7 0 10 -262144
-1 -1;
#X obj 571 777 tgl 15 0 empty empty empty 17 7 0 10 -262144 -1 -1 0
1;
#X obj 550 804 spigot;
#X obj 526 661 bng 15 250 50 0 empty empty empty 17 7 0 10 -262144
-1 -1;
#X obj 351 729 sel 60 61 62 63 64 65 66 67 68 69 70 71 72 73 74 75
;
#X msg 1418 165 \; screenLine1 1: 1st Screen Message \; screenLine2
2: 1st Screen Message \; screenLine3 3: 1st Screen Message \; screenLine4
4: 1st Screen Message \; screenLine5 preset \;;
#X obj 13 325 change;
#X connect 1 0 45 0;
#X connect 2 0 4 0;
#X connect 3 0 15 0;
#X connect 3 0 97 0;
#X connect 4 0 3 0;
#X connect 7 0 28 0;
#X connect 10 0 28 0;
#X connect 12 0 13 0;
#X connect 13 0 4 0;
#X connect 23 0 2 0;
#X connect 24 0 1 0;
#X connect 26 0 27 0;
#X connect 45 0 4 0;
#X connect 45 1 3 1;
#X connect 48 0 47 0;
#X connect 49 0 47 0;
#X connect 50 0 47 0;
#X connect 54 0 61 0;
#X connect 55 0 61 0;
#X connect 56 0 61 0;
#X connect 62 0 61 0;
#X connect 63 0 61 0;
#X connect 64 0 61 0;
#X connect 65 0 61 0;
#X connect 66 0 61 0;
#X connect 73 0 89 0;
#X connect 74 0 92 0;
#X connect 75 0 94 0;
#X connect 76 0 96 0;
#X connect 77 0 73 0;
#X connect 78 0 74 0;
#X connect 79 0 75 0;
#X connect 80 0 76 0;
#X connect 81 0 107 0;
#X connect 82 0 81 0;
#X connect 82 0 83 0;
#X connect 84 0 85 0;
#X connect 85 0 86 0;
#X connect 86 0 106 0;
#X connect 88 0 108 0;
#X connect 89 0 26 0;
#X connect 89 0 90 0;
#X connect 91 0 10 0;
#X connect 92 0 91 0;
#X connect 93 0 7 0;
#X connect 94 0 93 0;
#X connect 95 0 12 0;
#X connect 96 0 95 0;
#X connect 97 0 98 0;
#X connect 99 0 101 0;
#X connect 100 0 101 1;
#X connect 101 0 39 0;
#X connect 102 0 104 0;
#X connect 103 0 104 1;
#X connect 104 0 36 0;
#X connect 105 0 42 0;
#X connect 106 0 16 0;
#X connect 106 1 33 0;
#X connect 106 2 18 0;
#X connect 106 3 99 0;
#X connect 106 3 100 0;
#X connect 106 4 102 0;
#X connect 106 4 103 0;
#X connect 106 5 105 0;
#X connect 106 6 48 0;
#X connect 106 7 49 0;
#X connect 106 7 54 0;
#X connect 106 8 50 0;
#X connect 106 8 55 0;
#X connect 106 9 56 0;
#X connect 106 10 62 0;
#X connect 106 11 63 0;
#X connect 106 12 64 0;
#X connect 106 13 65 0;
#X connect 106 14 66 0;
#X connect 108 0 17 0;
#X coords 0 -1 1 1 85 60 1 100 100;
#X restore 389 385 pd MidiConfig;
#X text 66 409 Audio Out;
#X obj 227 66 inlet;
#X obj 354 68 inlet;
#X obj 482 66 inlet;
#X text 224 43 rewind;
#X text 355 44 record;
#X text 478 44 pause/continue;
#X text 92 37 Audio IN:;
#X text 226 23 |---------------------- BANGS: --------------------|
;
#X text 254 457 --- Alexandre Torres Porres - February 2010 ---;
#X connect 0 0 5 0;
#X connect 4 0 0 0;
#X connect 8 0 0 1;
#X connect 9 0 0 2;
#X connect 10 0 0 3;
#X coords 0 -1 1 1 522 270 1 100 100;
