#N canvas 512 32 475 575 10;
#X obj -443 -191 cnv 15 450 900 empty empty LocuStreamBox_v1.2 20 24
1 28 -99865 -258048 0;
#X obj -428 5 cnv 15 400 180 empty empty empty 20 12 1 16 -162280 -66577
0;
#X obj -433 416 cnv 15 420 120 empty empty empty 20 12 0 14 -162280
-66577 0;
#N canvas 30 163 919 416 oggcast 0;
#X floatatom 262 151 5 0 0 1 pages-sent - -;
#X floatatom 260 116 3 0 0 1 status_(1=ON)_(0=OFF) - -;
#X obj 11 -37 r oggcast;
#X obj 180 30 print;
#X obj 112 119 tgl 15 0 empty auto-reconnect auto-reconnect 18 8 1
10 -262144 -1 -1 1 1;
#X text 170 48 BUFFER IS CRUCIAL TO AVOID CLICKS;
#X msg 249 12 disconnect;
#X obj 376 -18 outlet;
#X obj 376 -74 route on off;
#X obj 328 -39 bng 15 250 50 0 empty empty empty 17 7 0 10 -262144
-1 -1;
#X obj 465 -19 bng 15 250 50 0 empty empty empty 17 7 0 10 -262144
-1 -1;
#X msg 376 -48 set off;
#X msg 450 -50 set on;
#X msg 285 -64 off;
#X obj 293 -17 s conectar;
#X obj 503 -50 r setstreamoff;
#N canvas 0 166 1245 704 re-connect 0;
#X floatatom 392 248 15 0 0 0 - - -;
#X floatatom 287 250 5 0 0 0 - - -;
#X msg 200 324 0;
#X msg 169 324 1;
#X msg 288 373 0;
#X floatatom 287 396 5 0 0 0 - - -;
#X obj 260 394 +;
#X msg 260 372 1;
#X obj 260 349 metro 1000;
#X obj 258 445 bng 15 250 50 0 empty empty empty 17 7 0 10 -262144
-1 -1;
#X obj 269 502 s discon;
#X obj 258 526 delay 3000;
#X obj 327 249 s cstate;
#X msg 466 430 0;
#X floatatom 465 453 5 0 0 0 - - -;
#X obj 438 451 +;
#X msg 438 429 1;
#X obj 436 476 route 10;
#X obj 436 502 bng 15 250 50 0 empty empty empty 17 7 0 10 -262144
-1 -1;
#X obj 436 548 shell;
#X msg 436 524 sudo reboot;
#X msg 329 502 set \$1;
#X msg 329 523 1;
#X msg 330 458 0;
#X floatatom 329 481 5 0 0 0 - - -;
#X obj 302 479 +;
#X msg 302 457 1;
#X obj 791 395 / 60;
#X floatatom 791 416 5 0 0 0 - - -;
#X obj 791 439 / 60;
#X floatatom 791 460 5 0 0 0 - - -;
#X text 862 374 s;
#X text 866 414 m;
#X text 868 455 h;
#X text 849 345 up since;
#X msg 764 306 1;
#X msg 792 351 0;
#X floatatom 791 374 10 0 0 0 - - -;
#X obj 764 372 +;
#X msg 764 350 1;
#X obj 764 327 metro 1000;
#X msg 516 514 set \$1;
#X msg 516 535 1;
#X text 515 564 reboot count;
#X text 328 543 recon count;
#X obj 468 332 route 10;
#X obj 346 320 route 0;
#X obj 365 381 print drop at;
#X msg 398 316 set \$1;
#X msg 399 344 127;
#X text 851 481 reboot after 6h;
#X obj 620 383 / 60;
#X floatatom 620 404 5 0 0 0 - - -;
#X obj 620 427 / 60;
#X floatatom 620 448 5 0 0 0 - - -;
#X text 691 362 s;
#X text 695 402 m;
#X text 697 443 h;
#X text 678 333 up since;
#X msg 621 339 0;
#X floatatom 620 362 10 0 0 0 - - -;
#X obj 593 360 +;
#X msg 593 338 1;
#X obj 593 315 metro 1000;
#X obj 542 315 route 0;
#X floatatom 542 290 5 0 0 0 - - -;
#X obj 258 420 route 10;
#X obj 281 212 inlet;
#X obj 391 213 inlet;
#X obj 764 283 loadbang;
#X obj 258 551 s conectar;
#X obj 260 300 inlet;
#X obj 790 479 route 24;
#X connect 0 0 4 0;
#X connect 0 0 45 0;
#X connect 0 0 48 0;
#X connect 1 0 46 0;
#X connect 1 0 65 0;
#X connect 2 0 8 0;
#X connect 3 0 8 0;
#X connect 4 0 5 0;
#X connect 5 0 6 1;
#X connect 5 0 66 0;
#X connect 6 0 5 0;
#X connect 7 0 6 0;
#X connect 8 0 7 0;
#X connect 9 0 11 0;
#X connect 9 0 10 0;
#X connect 9 0 16 0;
#X connect 9 0 26 0;
#X connect 11 0 4 0;
#X connect 11 0 70 0;
#X connect 13 0 14 0;
#X connect 14 0 15 1;
#X connect 14 0 17 0;
#X connect 14 0 41 0;
#X connect 15 0 14 0;
#X connect 16 0 15 0;
#X connect 17 0 18 0;
#X connect 18 0 20 0;
#X connect 20 0 19 0;
#X connect 21 0 22 0;
#X connect 23 0 24 0;
#X connect 24 0 25 1;
#X connect 24 0 21 0;
#X connect 25 0 24 0;
#X connect 26 0 25 0;
#X connect 27 0 28 0;
#X connect 28 0 29 0;
#X connect 29 0 30 0;
#X connect 30 0 72 0;
#X connect 35 0 40 0;
#X connect 36 0 37 0;
#X connect 37 0 38 1;
#X connect 37 0 27 0;
#X connect 38 0 37 0;
#X connect 39 0 38 0;
#X connect 40 0 39 0;
#X connect 41 0 42 0;
#X connect 45 0 13 0;
#X connect 46 0 49 0;
#X connect 48 0 49 0;
#X connect 49 0 47 0;
#X connect 51 0 52 0;
#X connect 52 0 53 0;
#X connect 53 0 54 0;
#X connect 59 0 60 0;
#X connect 60 0 61 1;
#X connect 60 0 51 0;
#X connect 61 0 60 0;
#X connect 62 0 61 0;
#X connect 63 0 62 0;
#X connect 64 0 59 0;
#X connect 65 0 63 0;
#X connect 65 0 64 0;
#X connect 66 0 9 0;
#X connect 67 0 1 0;
#X connect 67 0 12 0;
#X connect 68 0 0 0;
#X connect 69 0 35 0;
#X connect 71 0 8 0;
#X connect 72 0 18 0;
#X restore 99 78 pd re-connect --------------;
#X obj 199 -29 r discon;
#X obj 112 141 bng 15 250 50 0 empty empty manuel_disconnect 17 7 0
10 -262144 -1 -1;
#X symbolatom 178 195 56 0 0 0 Your_Stream: url? -;
#X obj 113 162 bng 15 250 50 0 empty empty manuel_connect 17 7 0 10
-262144 -1 -1;
#X obj 68 39 oggcast~ 1 96;
#X obj 68 -65 inlet~;
#X connect 2 0 3 0;
#X connect 2 0 21 0;
#X connect 4 0 16 0;
#X connect 6 0 21 0;
#X connect 8 0 11 0;
#X connect 8 0 9 0;
#X connect 8 1 12 0;
#X connect 8 1 10 0;
#X connect 9 0 14 0;
#X connect 10 0 6 0;
#X connect 11 0 7 0;
#X connect 11 0 13 0;
#X connect 12 0 7 0;
#X connect 12 0 13 0;
#X connect 13 0 8 0;
#X connect 15 0 10 0;
#X connect 17 0 6 0;
#X connect 18 0 6 0;
#X connect 20 0 14 0;
#X connect 21 0 1 0;
#X connect 21 0 16 1;
#X connect 21 1 0 0;
#X connect 21 1 16 2;
#X connect 22 0 21 0;
#X coords 0 -1 1 1 420 120 1 100 100;
#X restore -433 416 pd oggcast;
#X text -243 -149 info: support@locusonus.org;
#X text -413 -150 http://locusonus.org/;
#X text -220 303 http://locus.creacast.com:9001/;
#X text -430 494 check the status of the stream ->;
#N canvas 105 51 1261 756 settings 0;
#X msg -223 108 \; oggcast disconnect;
#X obj -336 13 select 1;
#X obj -427 274 r reconnect;
#X obj -426 297 bng 15 250 50 0 empty empty empty 0 -6 0 8 -262144
-1 -1;
#X obj -246 47 t b b b;
#X msg -203 70 \; auto-reconnect 0;
#X obj -351 169 symbol;
#X obj -428 17 t b b b b b;
#X obj -344 215 s url?;
#X obj -428 318 symbol;
#X obj -342 -9 tgl 15 0 empty stream empty 0 -6 0 8 -262144 -1 -1 1
1;
#X msg -396 101 -1;
#X obj -343 193 makefilename http://locus.creacast.com:9001/%s;
#X msg -428 341 \; oggcast disconnect \; oggcast connect locus.creacast.com
\$1 9001 \;;
#X obj -379 70 prepend set;
#X obj 357 147 cnv 15 100 60 empty empty empty 20 12 0 14 -233017 -66577
0;
#X obj 375 153 tgl 50 0 stream empty STREAM 5 7 0 10 -262144 -1 -1
1 1;
#X msg -351 241 \; oggcast server 1 \; oggcast passwd locusonus1 \;
oggcast vbr 44100 2 0.4 \; oggcast connect locus.creacast.com \$1 9001
\; auto-reconnect 1 \;;
#X obj -338 666 shell;
#X obj -311 693 bng 15 250 50 0 empty empty empty 17 7 0 10 -262144
-1 -1;
#X obj -338 642 prepend curl;
#X obj 84 543 r city;
#X obj 188 544 r location;
#X obj -338 718 remote;
#X obj 188 567 prepend set;
#X obj 84 568 prepend set;
#X obj 288 569 prepend set;
#X obj 288 541 r name;
#X obj 380 568 prepend set;
#X msg 399 594 -1;
#X obj 380 541 r url;
#X obj -101 611 r error;
#X obj -198 687 s city;
#X obj -150 687 s location;
#X obj -78 687 s name;
#X obj -30 687 s url;
#X obj -338 593 t a b;
#X obj -311 618 s error;
#X msg 84 592 -1;
#X msg 188 590 -1;
#X msg 288 592 -1;
#X msg -101 644 -1;
#X obj 486 570 prepend set;
#X msg 486 593 -1;
#X obj 486 543 r mountpoint;
#X obj -338 552 sprintf http://locusonus.org/soundmap/admin/autoconfig.php?q=%s
;
#X obj -379 46 r mountpoint;
#X symbolatom 150 183 20 0 0 0 LOGIN - -;
#X obj -102 468 textfile;
#X obj -102 407 t b b;
#X obj -102 432 until;
#X obj -102 382 loadbang;
#X msg -49 433 read streambox_config.txt cr \, rewind;
#X obj -153 500 route #login;
#X obj -227 621 bng 15 250 50 0 empty empty empty 17 7 0 10 -262144
-1 -1;
#X obj -269 719 s start;
#X obj 385 47 delay 1000;
#X msg 18 345 write streambox_config.txt cr;
#X obj 139 401 prepend set;
#X msg 159 367 #login \$1;
#X obj 55 292 t b b s;
#X obj -151 404 bng 15 250 50 0 empty empty empty 17 7 0 10 -262144
-1 -1;
#X obj 16 102 prepend set;
#X obj 15 72 symbol;
#X obj -245 501 print;
#X msg 385 81 1;
#X obj 13 687 s mountpoint;
#X msg 303 73 0;
#X obj 323 -21 r mountpoint;
#X obj 323 6 route -1;
#X obj 390 22 bng 15 250 50 0 empty empty empty 17 7 0 10 -262144 -1
-1;
#X text 119 242 Provided that you have locustream account the program
will grab stream info from the server.;
#X text 111 146 Enter login hit carriage return;
#X connect 1 0 7 0;
#X connect 1 1 4 0;
#X connect 2 0 3 0;
#X connect 3 0 9 0;
#X connect 4 1 0 0;
#X connect 4 2 5 0;
#X connect 6 0 17 0;
#X connect 6 0 12 0;
#X connect 7 1 11 0;
#X connect 9 0 13 0;
#X connect 10 0 1 0;
#X connect 11 0 6 0;
#X connect 11 0 9 1;
#X connect 12 0 8 0;
#X connect 14 0 11 0;
#X connect 18 0 23 0;
#X connect 18 1 19 0;
#X connect 19 0 55 0;
#X connect 20 0 18 0;
#X connect 21 0 25 0;
#X connect 22 0 24 0;
#X connect 24 0 39 0;
#X connect 25 0 38 0;
#X connect 26 0 40 0;
#X connect 27 0 26 0;
#X connect 28 0 29 0;
#X connect 30 0 28 0;
#X connect 31 0 41 0;
#X connect 36 0 20 0;
#X connect 36 1 37 0;
#X connect 41 0 32 0;
#X connect 41 0 33 0;
#X connect 41 0 34 0;
#X connect 41 0 35 0;
#X connect 41 0 66 0;
#X connect 42 0 43 0;
#X connect 44 0 42 0;
#X connect 45 0 36 0;
#X connect 46 0 14 0;
#X connect 47 0 60 0;
#X connect 48 0 53 0;
#X connect 48 0 64 0;
#X connect 48 1 50 1;
#X connect 49 0 50 0;
#X connect 49 1 52 0;
#X connect 50 0 48 0;
#X connect 51 0 49 0;
#X connect 52 0 48 0;
#X connect 53 0 45 0;
#X connect 53 0 63 0;
#X connect 54 0 37 0;
#X connect 56 0 65 0;
#X connect 57 0 48 0;
#X connect 58 0 48 0;
#X connect 59 0 58 0;
#X connect 60 0 49 0;
#X connect 60 1 57 0;
#X connect 60 2 59 0;
#X connect 61 0 49 0;
#X connect 62 0 47 0;
#X connect 63 0 62 0;
#X connect 65 0 16 0;
#X connect 67 0 16 0;
#X connect 68 0 69 0;
#X connect 69 0 67 0;
#X connect 69 1 70 0;
#X connect 70 0 56 0;
#X coords 0 -1 1 1 400 180 1 100 100;
#X restore -429 5 pd settings;
#X obj -426 -97 cnv 15 420 30 empty empty first_of_all 2 10 0 12 -162280
-262144 0;
#X text -426 -83 to obtain your stream-name :;
#X text -198 -86 http://locusonus.org/soundmap/;
#X text -342 -95 register your stream;
#N canvas 412 199 738 440 Input 0;
#X obj 158 167 vu 30 120 leval2 empty -1 -8 0 8 -66577 -1 1 0;
#X obj 157 54 pvu~;
#X obj 116 166 vsl 30 120 0 2 0 0 empty empty empty 0 -9 0 10 -4034
-1 -1 5950 1;
#X obj -100 105 *~ 1;
#X obj 46 23 loadbang;
#X text 281 99 INPUT;
#X msg -9 57 set \$1;
#X text 113 116 You can adjust gain (but it is preferable to do this
at the preamp stage). Save the patch to save the setting.;
#X msg 385 193 \; pd dsp \$1;
#X obj 386 165 tgl 15 0 empty empty AUDIO_on/off 17 7 0 10 -262144
-1 -1 1 1;
#X obj 549 120 loadbang;
#X msg 548 159 1;
#X msg 56 49 1;
#X obj -100 81 adc~ 1;
#X obj -99 130 outlet~;
#X connect 1 0 0 0;
#X connect 2 0 3 1;
#X connect 2 0 6 0;
#X connect 3 0 1 0;
#X connect 3 0 14 0;
#X connect 4 0 12 0;
#X connect 6 0 12 0;
#X connect 9 0 8 0;
#X connect 10 0 11 0;
#X connect 11 0 9 0;
#X connect 12 0 2 0;
#X connect 13 0 3 0;
#X coords 0 -1 1 1 420 200 1 100 100;
#X restore -433 204 pd Input;
#X text -267 -125 comment;
#X connect 13 0 3 0;
